<?xml version="1.0" encoding="utf-8" standalone="no"?>
<!DOCTYPE svg PUBLIC "-//W3C//DTD SVG 1.1//EN"
  "http://www.w3.org/Graphics/SVG/1.1/DTD/svg11.dtd">
<svg xmlns:xlink="http://www.w3.org/1999/xlink" width="576pt" height="432pt" viewBox="0 0 576 432" xmlns="http://www.w3.org/2000/svg" version="1.1">
 <metadata>
  <rdf:RDF xmlns:dc="http://purl.org/dc/elements/1.1/" xmlns:cc="http://creativecommons.org/ns#" xmlns:rdf="http://www.w3.org/1999/02/22-rdf-syntax-ns#">
   <cc:Work>
    <dc:type rdf:resource="http://purl.org/dc/dcmitype/StillImage"/>
    <dc:date>2022-01-18T16:49:19.524300</dc:date>
    <dc:format>image/svg+xml</dc:format>
    <dc:creator>
     <cc:Agent>
      <dc:title>Matplotlib v3.5.0, https://matplotlib.org/</dc:title>
     </cc:Agent>
    </dc:creator>
   </cc:Work>
  </rdf:RDF>
 </metadata>
 <defs>
  <style type="text/css">*{stroke-linejoin: round; stroke-linecap: butt}</style>
 </defs>
 <g id="figure_1">
  <g id="patch_1">
   <path d="M 0 432 
L 576 432 
L 576 0 
L 0 0 
L 0 432 
z
" style="fill: none"/>
  </g>
  <g id="axes_1">
   <g id="patch_2">
    <path d="M 72 378 
L 518.4 378 
L 518.4 51.84 
L 72 51.84 
z
" style="fill: #ffffff"/>
   </g>
   <g id="matplotlib.axis_1">
    <g id="xtick_1">
     <g id="line2d_1">
      <defs>
       <path id="m4f0bfc5849" d="M 0 0 
L 0 -3.5 
" style="stroke: #000000; stroke-width: 0.8"/>
      </defs>
      <g>
       <use xlink:href="#m4f0bfc5849" x="92.290909" y="378" style="stroke: #000000; stroke-width: 0.8"/>
      </g>
     </g>
     <g id="text_1">
      <!-- 0 -->
      <g transform="translate(85.928409 396.696875)scale(0.2 -0.2)">
       <defs>
        <path id="DejaVuSans-30" d="M 2034 4250 
Q 1547 4250 1301 3770 
Q 1056 3291 1056 2328 
Q 1056 1369 1301 889 
Q 1547 409 2034 409 
Q 2525 409 2770 889 
Q 3016 1369 3016 2328 
Q 3016 3291 2770 3770 
Q 2525 4250 2034 4250 
z
M 2034 4750 
Q 2819 4750 3233 4129 
Q 3647 3509 3647 2328 
Q 3647 1150 3233 529 
Q 2819 -91 2034 -91 
Q 1250 -91 836 529 
Q 422 1150 422 2328 
Q 422 3509 836 4129 
Q 1250 4750 2034 4750 
z
" transform="scale(0.015625)"/>
       </defs>
       <use xlink:href="#DejaVuSans-30"/>
      </g>
     </g>
    </g>
    <g id="xtick_2">
     <g id="line2d_2">
      <g>
       <use xlink:href="#m4f0bfc5849" x="173.454545" y="378" style="stroke: #000000; stroke-width: 0.8"/>
      </g>
     </g>
     <g id="text_2">
      <!-- $0.2 \pi$ -->
      <g transform="translate(152.054545 396.696875)scale(0.2 -0.2)">
       <defs>
        <path id="DejaVuSans-2e" d="M 684 794 
L 1344 794 
L 1344 0 
L 684 0 
L 684 794 
z
" transform="scale(0.015625)"/>
        <path id="DejaVuSans-32" d="M 1228 531 
L 3431 531 
L 3431 0 
L 469 0 
L 469 531 
Q 828 903 1448 1529 
Q 2069 2156 2228 2338 
Q 2531 2678 2651 2914 
Q 2772 3150 2772 3378 
Q 2772 3750 2511 3984 
Q 2250 4219 1831 4219 
Q 1534 4219 1204 4116 
Q 875 4013 500 3803 
L 500 4441 
Q 881 4594 1212 4672 
Q 1544 4750 1819 4750 
Q 2544 4750 2975 4387 
Q 3406 4025 3406 3419 
Q 3406 3131 3298 2873 
Q 3191 2616 2906 2266 
Q 2828 2175 2409 1742 
Q 1991 1309 1228 531 
z
" transform="scale(0.015625)"/>
        <path id="DejaVuSans-Oblique-3c0" d="M 584 3500 
L 3938 3500 
L 3825 2925 
L 3384 2925 
L 2966 775 
Q 2922 550 2981 450 
Q 3038 353 3209 353 
Q 3256 353 3325 363 
Q 3397 369 3419 372 
L 3338 -44 
Q 3222 -84 3103 -103 
Q 2981 -122 2866 -122 
Q 2491 -122 2388 81 
Q 2284 288 2391 838 
L 2797 2925 
L 1506 2925 
L 938 0 
L 350 0 
L 919 2925 
L 472 2925 
L 584 3500 
z
" transform="scale(0.015625)"/>
       </defs>
       <use xlink:href="#DejaVuSans-30" transform="translate(0 0.78125)"/>
       <use xlink:href="#DejaVuSans-2e" transform="translate(63.623047 0.78125)"/>
       <use xlink:href="#DejaVuSans-32" transform="translate(89.910156 0.78125)"/>
       <use xlink:href="#DejaVuSans-Oblique-3c0" transform="translate(153.533203 0.78125)"/>
      </g>
     </g>
    </g>
    <g id="xtick_3">
     <g id="line2d_3">
      <g>
       <use xlink:href="#m4f0bfc5849" x="254.618182" y="378" style="stroke: #000000; stroke-width: 0.8"/>
      </g>
     </g>
     <g id="text_3">
      <!-- $0.4 \pi$ -->
      <g transform="translate(232.618182 396.696875)scale(0.2 -0.2)">
       <defs>
        <path id="DejaVuSans-34" d="M 2419 4116 
L 825 1625 
L 2419 1625 
L 2419 4116 
z
M 2253 4666 
L 3047 4666 
L 3047 1625 
L 3713 1625 
L 3713 1100 
L 3047 1100 
L 3047 0 
L 2419 0 
L 2419 1100 
L 313 1100 
L 313 1709 
L 2253 4666 
z
" transform="scale(0.015625)"/>
       </defs>
       <use xlink:href="#DejaVuSans-30" transform="translate(0 0.78125)"/>
       <use xlink:href="#DejaVuSans-2e" transform="translate(63.623047 0.78125)"/>
       <use xlink:href="#DejaVuSans-34" transform="translate(95.410156 0.78125)"/>
       <use xlink:href="#DejaVuSans-Oblique-3c0" transform="translate(159.033203 0.78125)"/>
      </g>
     </g>
    </g>
    <g id="xtick_4">
     <g id="line2d_4">
      <g>
       <use xlink:href="#m4f0bfc5849" x="335.781818" y="378" style="stroke: #000000; stroke-width: 0.8"/>
      </g>
     </g>
     <g id="text_4">
      <!-- $0.6 \pi$ -->
      <g transform="translate(313.781818 396.696875)scale(0.2 -0.2)">
       <defs>
        <path id="DejaVuSans-36" d="M 2113 2584 
Q 1688 2584 1439 2293 
Q 1191 2003 1191 1497 
Q 1191 994 1439 701 
Q 1688 409 2113 409 
Q 2538 409 2786 701 
Q 3034 994 3034 1497 
Q 3034 2003 2786 2293 
Q 2538 2584 2113 2584 
z
M 3366 4563 
L 3366 3988 
Q 3128 4100 2886 4159 
Q 2644 4219 2406 4219 
Q 1781 4219 1451 3797 
Q 1122 3375 1075 2522 
Q 1259 2794 1537 2939 
Q 1816 3084 2150 3084 
Q 2853 3084 3261 2657 
Q 3669 2231 3669 1497 
Q 3669 778 3244 343 
Q 2819 -91 2113 -91 
Q 1303 -91 875 529 
Q 447 1150 447 2328 
Q 447 3434 972 4092 
Q 1497 4750 2381 4750 
Q 2619 4750 2861 4703 
Q 3103 4656 3366 4563 
z
" transform="scale(0.015625)"/>
       </defs>
       <use xlink:href="#DejaVuSans-30" transform="translate(0 0.78125)"/>
       <use xlink:href="#DejaVuSans-2e" transform="translate(63.623047 0.78125)"/>
       <use xlink:href="#DejaVuSans-36" transform="translate(95.410156 0.78125)"/>
       <use xlink:href="#DejaVuSans-Oblique-3c0" transform="translate(159.033203 0.78125)"/>
      </g>
     </g>
    </g>
    <g id="xtick_5">
     <g id="line2d_5">
      <g>
       <use xlink:href="#m4f0bfc5849" x="416.945455" y="378" style="stroke: #000000; stroke-width: 0.8"/>
      </g>
     </g>
     <g id="text_5">
      <!-- $0.8 \pi$ -->
      <g transform="translate(395.245455 396.696875)scale(0.2 -0.2)">
       <defs>
        <path id="DejaVuSans-38" d="M 2034 2216 
Q 1584 2216 1326 1975 
Q 1069 1734 1069 1313 
Q 1069 891 1326 650 
Q 1584 409 2034 409 
Q 2484 409 2743 651 
Q 3003 894 3003 1313 
Q 3003 1734 2745 1975 
Q 2488 2216 2034 2216 
z
M 1403 2484 
Q 997 2584 770 2862 
Q 544 3141 544 3541 
Q 544 4100 942 4425 
Q 1341 4750 2034 4750 
Q 2731 4750 3128 4425 
Q 3525 4100 3525 3541 
Q 3525 3141 3298 2862 
Q 3072 2584 2669 2484 
Q 3125 2378 3379 2068 
Q 3634 1759 3634 1313 
Q 3634 634 3220 271 
Q 2806 -91 2034 -91 
Q 1263 -91 848 271 
Q 434 634 434 1313 
Q 434 1759 690 2068 
Q 947 2378 1403 2484 
z
M 1172 3481 
Q 1172 3119 1398 2916 
Q 1625 2713 2034 2713 
Q 2441 2713 2670 2916 
Q 2900 3119 2900 3481 
Q 2900 3844 2670 4047 
Q 2441 4250 2034 4250 
Q 1625 4250 1398 4047 
Q 1172 3844 1172 3481 
z
" transform="scale(0.015625)"/>
       </defs>
       <use xlink:href="#DejaVuSans-30" transform="translate(0 0.78125)"/>
       <use xlink:href="#DejaVuSans-2e" transform="translate(63.623047 0.78125)"/>
       <use xlink:href="#DejaVuSans-38" transform="translate(92.785156 0.78125)"/>
       <use xlink:href="#DejaVuSans-Oblique-3c0" transform="translate(156.408203 0.78125)"/>
      </g>
     </g>
    </g>
    <g id="xtick_6">
     <g id="line2d_6">
      <g>
       <use xlink:href="#m4f0bfc5849" x="498.109091" y="378" style="stroke: #000000; stroke-width: 0.8"/>
      </g>
     </g>
     <g id="text_6">
      <!-- $\pi$ -->
      <g transform="translate(492.009091 396.696875)scale(0.2 -0.2)">
       <use xlink:href="#DejaVuSans-Oblique-3c0" transform="translate(0 0.3125)"/>
      </g>
     </g>
    </g>
    <g id="text_7">
     <!-- $\theta$ -->
     <g transform="translate(289 420.053125)scale(0.2 -0.2)">
      <defs>
       <path id="DejaVuSans-Oblique-3b8" d="M 2913 2219 
L 925 2219 
Q 791 1284 928 888 
Q 1100 400 1566 400 
Q 2034 400 2391 891 
Q 2703 1322 2913 2219 
z
M 3009 2750 
Q 3094 3638 2984 3950 
Q 2813 4444 2353 4444 
Q 1875 4444 1525 3956 
Q 1250 3563 1034 2750 
L 3009 2750 
z
M 2444 4913 
Q 3194 4913 3494 4250 
Q 3794 3591 3566 2422 
Q 3341 1256 2781 594 
Q 2225 -72 1475 -72 
Q 722 -72 425 594 
Q 128 1256 353 2422 
Q 581 3591 1134 4250 
Q 1691 4913 2444 4913 
z
" transform="scale(0.015625)"/>
      </defs>
      <use xlink:href="#DejaVuSans-Oblique-3b8" transform="translate(0 0.234375)"/>
     </g>
    </g>
   </g>
   <g id="matplotlib.axis_2">
    <g id="ytick_1">
     <g id="line2d_7">
      <defs>
       <path id="m0e7e45ce53" d="M 0 0 
L -3.5 0 
" style="stroke: #000000; stroke-width: 0.8"/>
      </defs>
      <g>
       <use xlink:href="#m0e7e45ce53" x="72" y="363.174545" style="stroke: #000000; stroke-width: 0.8"/>
      </g>
     </g>
     <g id="text_8">
      <!-- 0.00 -->
      <g transform="translate(20.46875 370.772983)scale(0.2 -0.2)">
       <use xlink:href="#DejaVuSans-30"/>
       <use xlink:href="#DejaVuSans-2e" x="63.623047"/>
       <use xlink:href="#DejaVuSans-30" x="95.410156"/>
       <use xlink:href="#DejaVuSans-30" x="159.033203"/>
      </g>
     </g>
    </g>
    <g id="ytick_2">
     <g id="line2d_8">
      <g>
       <use xlink:href="#m0e7e45ce53" x="72" y="316.887205" style="stroke: #000000; stroke-width: 0.8"/>
      </g>
     </g>
     <g id="text_9">
      <!-- 0.02 -->
      <g transform="translate(20.46875 324.485642)scale(0.2 -0.2)">
       <use xlink:href="#DejaVuSans-30"/>
       <use xlink:href="#DejaVuSans-2e" x="63.623047"/>
       <use xlink:href="#DejaVuSans-30" x="95.410156"/>
       <use xlink:href="#DejaVuSans-32" x="159.033203"/>
      </g>
     </g>
    </g>
    <g id="ytick_3">
     <g id="line2d_9">
      <g>
       <use xlink:href="#m0e7e45ce53" x="72" y="270.599864" style="stroke: #000000; stroke-width: 0.8"/>
      </g>
     </g>
     <g id="text_10">
      <!-- 0.04 -->
      <g transform="translate(20.46875 278.198301)scale(0.2 -0.2)">
       <use xlink:href="#DejaVuSans-30"/>
       <use xlink:href="#DejaVuSans-2e" x="63.623047"/>
       <use xlink:href="#DejaVuSans-30" x="95.410156"/>
       <use xlink:href="#DejaVuSans-34" x="159.033203"/>
      </g>
     </g>
    </g>
    <g id="ytick_4">
     <g id="line2d_10">
      <g>
       <use xlink:href="#m0e7e45ce53" x="72" y="224.312523" style="stroke: #000000; stroke-width: 0.8"/>
      </g>
     </g>
     <g id="text_11">
      <!-- 0.06 -->
      <g transform="translate(20.46875 231.91096)scale(0.2 -0.2)">
       <use xlink:href="#DejaVuSans-30"/>
       <use xlink:href="#DejaVuSans-2e" x="63.623047"/>
       <use xlink:href="#DejaVuSans-30" x="95.410156"/>
       <use xlink:href="#DejaVuSans-36" x="159.033203"/>
      </g>
     </g>
    </g>
    <g id="ytick_5">
     <g id="line2d_11">
      <g>
       <use xlink:href="#m0e7e45ce53" x="72" y="178.025182" style="stroke: #000000; stroke-width: 0.8"/>
      </g>
     </g>
     <g id="text_12">
      <!-- 0.08 -->
      <g transform="translate(20.46875 185.623619)scale(0.2 -0.2)">
       <use xlink:href="#DejaVuSans-30"/>
       <use xlink:href="#DejaVuSans-2e" x="63.623047"/>
       <use xlink:href="#DejaVuSans-30" x="95.410156"/>
       <use xlink:href="#DejaVuSans-38" x="159.033203"/>
      </g>
     </g>
    </g>
    <g id="ytick_6">
     <g id="line2d_12">
      <g>
       <use xlink:href="#m0e7e45ce53" x="72" y="131.737841" style="stroke: #000000; stroke-width: 0.8"/>
      </g>
     </g>
     <g id="text_13">
      <!-- 0.10 -->
      <g transform="translate(20.46875 139.336279)scale(0.2 -0.2)">
       <defs>
        <path id="DejaVuSans-31" d="M 794 531 
L 1825 531 
L 1825 4091 
L 703 3866 
L 703 4441 
L 1819 4666 
L 2450 4666 
L 2450 531 
L 3481 531 
L 3481 0 
L 794 0 
L 794 531 
z
" transform="scale(0.015625)"/>
       </defs>
       <use xlink:href="#DejaVuSans-30"/>
       <use xlink:href="#DejaVuSans-2e" x="63.623047"/>
       <use xlink:href="#DejaVuSans-31" x="95.410156"/>
       <use xlink:href="#DejaVuSans-30" x="159.033203"/>
      </g>
     </g>
    </g>
    <g id="ytick_7">
     <g id="line2d_13">
      <g>
       <use xlink:href="#m0e7e45ce53" x="72" y="85.4505" style="stroke: #000000; stroke-width: 0.8"/>
      </g>
     </g>
     <g id="text_14">
      <!-- 0.12 -->
      <g transform="translate(20.46875 93.048938)scale(0.2 -0.2)">
       <use xlink:href="#DejaVuSans-30"/>
       <use xlink:href="#DejaVuSans-2e" x="63.623047"/>
       <use xlink:href="#DejaVuSans-31" x="95.410156"/>
       <use xlink:href="#DejaVuSans-32" x="159.033203"/>
      </g>
     </g>
    </g>
    <g id="text_15">
     <!-- $P_{nonlocal}$ -->
     <g transform="translate(12.309375 250.72)rotate(-90)scale(0.2 -0.2)">
      <defs>
       <path id="DejaVuSans-Oblique-50" d="M 1081 4666 
L 2541 4666 
Q 3178 4666 3512 4369 
Q 3847 4072 3847 3500 
Q 3847 2731 3353 2303 
Q 2859 1875 1966 1875 
L 1172 1875 
L 806 0 
L 172 0 
L 1081 4666 
z
M 1613 4147 
L 1275 2394 
L 2069 2394 
Q 2606 2394 2893 2669 
Q 3181 2944 3181 3456 
Q 3181 3784 2986 3965 
Q 2791 4147 2438 4147 
L 1613 4147 
z
" transform="scale(0.015625)"/>
       <path id="DejaVuSans-Oblique-6e" d="M 3566 2113 
L 3156 0 
L 2578 0 
L 2988 2091 
Q 3016 2238 3031 2350 
Q 3047 2463 3047 2528 
Q 3047 2791 2881 2937 
Q 2716 3084 2419 3084 
Q 1956 3084 1622 2776 
Q 1288 2469 1184 1941 
L 800 0 
L 225 0 
L 903 3500 
L 1478 3500 
L 1363 2950 
Q 1603 3253 1940 3418 
Q 2278 3584 2650 3584 
Q 3113 3584 3367 3334 
Q 3622 3084 3622 2631 
Q 3622 2519 3608 2391 
Q 3594 2263 3566 2113 
z
" transform="scale(0.015625)"/>
       <path id="DejaVuSans-Oblique-6f" d="M 1625 -91 
Q 1009 -91 651 289 
Q 294 669 294 1325 
Q 294 1706 417 2101 
Q 541 2497 738 2766 
Q 1047 3184 1428 3384 
Q 1809 3584 2291 3584 
Q 2888 3584 3255 3212 
Q 3622 2841 3622 2241 
Q 3622 1825 3500 1412 
Q 3378 1000 3181 728 
Q 2875 309 2494 109 
Q 2113 -91 1625 -91 
z
M 891 1344 
Q 891 869 1089 633 
Q 1288 397 1691 397 
Q 2269 397 2648 901 
Q 3028 1406 3028 2181 
Q 3028 2634 2825 2865 
Q 2622 3097 2228 3097 
Q 1903 3097 1650 2945 
Q 1397 2794 1197 2484 
Q 1050 2253 970 1956 
Q 891 1659 891 1344 
z
" transform="scale(0.015625)"/>
       <path id="DejaVuSans-Oblique-6c" d="M 1172 4863 
L 1747 4863 
L 800 0 
L 225 0 
L 1172 4863 
z
" transform="scale(0.015625)"/>
       <path id="DejaVuSans-Oblique-63" d="M 3431 3366 
L 3316 2797 
Q 3109 2947 2876 3022 
Q 2644 3097 2394 3097 
Q 2119 3097 1870 3000 
Q 1622 2903 1453 2725 
Q 1184 2453 1037 2087 
Q 891 1722 891 1331 
Q 891 859 1127 628 
Q 1363 397 1844 397 
Q 2081 397 2348 469 
Q 2616 541 2906 684 
L 2797 116 
Q 2547 13 2283 -39 
Q 2019 -91 1741 -91 
Q 1044 -91 669 257 
Q 294 606 294 1253 
Q 294 1797 489 2255 
Q 684 2713 1069 3078 
Q 1331 3328 1684 3456 
Q 2038 3584 2456 3584 
Q 2700 3584 2940 3529 
Q 3181 3475 3431 3366 
z
" transform="scale(0.015625)"/>
       <path id="DejaVuSans-Oblique-61" d="M 3438 1997 
L 3047 0 
L 2472 0 
L 2578 531 
Q 2325 219 2001 64 
Q 1678 -91 1281 -91 
Q 834 -91 548 182 
Q 263 456 263 884 
Q 263 1497 752 1853 
Q 1241 2209 2100 2209 
L 2900 2209 
L 2931 2363 
Q 2938 2388 2941 2417 
Q 2944 2447 2944 2509 
Q 2944 2788 2717 2942 
Q 2491 3097 2081 3097 
Q 1800 3097 1504 3025 
Q 1209 2953 897 2809 
L 997 3341 
Q 1322 3463 1633 3523 
Q 1944 3584 2234 3584 
Q 2853 3584 3176 3315 
Q 3500 3047 3500 2534 
Q 3500 2431 3484 2292 
Q 3469 2153 3438 1997 
z
M 2816 1759 
L 2241 1759 
Q 1534 1759 1195 1570 
Q 856 1381 856 984 
Q 856 709 1029 553 
Q 1203 397 1509 397 
Q 1978 397 2328 733 
Q 2678 1069 2791 1631 
L 2816 1759 
z
" transform="scale(0.015625)"/>
      </defs>
      <use xlink:href="#DejaVuSans-Oblique-50" transform="translate(0 0.09375)"/>
      <use xlink:href="#DejaVuSans-Oblique-6e" transform="translate(60.302734 -16.3125)scale(0.7)"/>
      <use xlink:href="#DejaVuSans-Oblique-6f" transform="translate(104.667969 -16.3125)scale(0.7)"/>
      <use xlink:href="#DejaVuSans-Oblique-6e" transform="translate(147.495117 -16.3125)scale(0.7)"/>
      <use xlink:href="#DejaVuSans-Oblique-6c" transform="translate(191.860352 -16.3125)scale(0.7)"/>
      <use xlink:href="#DejaVuSans-Oblique-6f" transform="translate(211.308594 -16.3125)scale(0.7)"/>
      <use xlink:href="#DejaVuSans-Oblique-63" transform="translate(254.135742 -16.3125)scale(0.7)"/>
      <use xlink:href="#DejaVuSans-Oblique-61" transform="translate(292.62207 -16.3125)scale(0.7)"/>
      <use xlink:href="#DejaVuSans-Oblique-6c" transform="translate(335.517578 -16.3125)scale(0.7)"/>
     </g>
    </g>
   </g>
   <g id="line2d_14">
    <path d="M 92.290909 363.174545 
L 113.820803 363.064967 
L 121.945291 362.786636 
L 128.038657 362.368225 
L 133.319574 361.797653 
L 138.194267 361.052907 
L 142.662735 360.149737 
L 146.72498 359.117778 
L 150.787224 357.860561 
L 154.849468 356.355452 
L 158.505487 354.771328 
L 162.161507 352.954964 
L 165.817527 350.893548 
L 169.473546 348.575887 
L 173.129566 345.992592 
L 176.785586 343.136242 
L 180.441605 340.001517 
L 184.097625 336.585309 
L 187.753645 332.886811 
L 191.815889 328.44825 
L 195.878133 323.668733 
L 199.940377 318.557493 
L 204.408845 312.567429 
L 208.877314 306.213626 
L 213.752007 298.899212 
L 219.032924 290.571306 
L 225.12629 280.518165 
L 232.032105 268.678297 
L 241.781491 251.479806 
L 256.405569 225.693558 
L 263.311384 213.989847 
L 268.998526 204.776254 
L 273.873219 197.272342 
L 278.341687 190.771814 
L 282.403931 185.217646 
L 286.466175 180.037138 
L 290.122195 175.720569 
L 293.778215 171.754181 
L 297.02801 168.538692 
L 300.277805 165.628608 
L 303.5276 163.035669 
L 306.371171 161.035319 
L 309.214742 159.292152 
L 312.058313 157.8117 
L 314.901884 156.598734 
L 317.745455 155.657244 
L 320.182801 155.068775 
L 322.620147 154.683675 
L 325.057494 154.503061 
L 327.49484 154.527614 
L 329.932187 154.757581 
L 332.369533 155.192772 
L 334.80688 155.832564 
L 337.244226 156.675899 
L 340.087797 157.915041 
L 342.931368 159.426102 
L 345.774939 161.205217 
L 348.618509 163.247758 
L 351.46208 165.54835 
L 354.711876 168.485716 
L 357.961671 171.741887 
L 361.211466 175.305447 
L 364.867486 179.666225 
L 368.523505 184.380675 
L 372.585749 190.008046 
L 376.647993 196.014852 
L 381.116462 203.020846 
L 385.991155 211.086226 
L 391.272072 220.248503 
L 397.365438 231.259877 
L 405.489926 246.446179 
L 428.644717 290.052589 
L 434.738084 300.910494 
L 440.019001 309.903097 
L 444.893694 317.783861 
L 449.362162 324.598965 
L 453.424406 330.415877 
L 457.48665 335.839309 
L 461.14267 340.359466 
L 464.79869 344.516936 
L 468.048485 347.893111 
L 471.29828 350.956419 
L 474.548075 353.696182 
L 477.391646 355.820533 
L 480.235217 357.684177 
L 483.078788 359.282144 
L 485.922359 360.610173 
L 488.76593 361.664726 
L 491.203276 362.348812 
L 493.640622 362.82856 
L 496.077969 363.10303 
L 498.109091 363.174545 
L 498.109091 363.174545 
" clip-path="url(#pdb148fdb7f)" style="fill: none; stroke: #0000ff; stroke-width: 1.5; stroke-linecap: square"/>
   </g>
   <g id="line2d_15">
    <path d="M 92.290909 347.060974 
L 119.345455 344.017423 
L 146.4 339.222917 
L 173.454545 317.701374 
L 200.509091 305.262417 
L 227.563636 272.780886 
L 254.618182 221.568101 
L 281.672727 176.413459 
L 308.727273 104.554338 
L 335.781818 88.744272 
L 362.836364 104.38235 
L 389.890909 145.881435 
L 416.945455 261.124143 
L 444 250.167251 
L 471.054545 267.329626 
L 498.109091 273.783369 
" clip-path="url(#pdb148fdb7f)" style="fill: none; stroke: #ff0000; stroke-width: 1.5; stroke-linecap: square"/>
    <defs>
     <path id="m13e8feccd1" d="M 0 3 
C 0.795609 3 1.55874 2.683901 2.12132 2.12132 
C 2.683901 1.55874 3 0.795609 3 0 
C 3 -0.795609 2.683901 -1.55874 2.12132 -2.12132 
C 1.55874 -2.683901 0.795609 -3 0 -3 
C -0.795609 -3 -1.55874 -2.683901 -2.12132 -2.12132 
C -2.683901 -1.55874 -3 -0.795609 -3 0 
C -3 0.795609 -2.683901 1.55874 -2.12132 2.12132 
C -1.55874 2.683901 -0.795609 3 0 3 
z
" style="stroke: #ff0000"/>
    </defs>
    <g clip-path="url(#pdb148fdb7f)">
     <use xlink:href="#m13e8feccd1" x="92.290909" y="347.060974" style="fill: #ff0000; stroke: #ff0000"/>
     <use xlink:href="#m13e8feccd1" x="119.345455" y="344.017423" style="fill: #ff0000; stroke: #ff0000"/>
     <use xlink:href="#m13e8feccd1" x="146.4" y="339.222917" style="fill: #ff0000; stroke: #ff0000"/>
     <use xlink:href="#m13e8feccd1" x="173.454545" y="317.701374" style="fill: #ff0000; stroke: #ff0000"/>
     <use xlink:href="#m13e8feccd1" x="200.509091" y="305.262417" style="fill: #ff0000; stroke: #ff0000"/>
     <use xlink:href="#m13e8feccd1" x="227.563636" y="272.780886" style="fill: #ff0000; stroke: #ff0000"/>
     <use xlink:href="#m13e8feccd1" x="254.618182" y="221.568101" style="fill: #ff0000; stroke: #ff0000"/>
     <use xlink:href="#m13e8feccd1" x="281.672727" y="176.413459" style="fill: #ff0000; stroke: #ff0000"/>
     <use xlink:href="#m13e8feccd1" x="308.727273" y="104.554338" style="fill: #ff0000; stroke: #ff0000"/>
     <use xlink:href="#m13e8feccd1" x="335.781818" y="88.744272" style="fill: #ff0000; stroke: #ff0000"/>
     <use xlink:href="#m13e8feccd1" x="362.836364" y="104.38235" style="fill: #ff0000; stroke: #ff0000"/>
     <use xlink:href="#m13e8feccd1" x="389.890909" y="145.881435" style="fill: #ff0000; stroke: #ff0000"/>
     <use xlink:href="#m13e8feccd1" x="416.945455" y="261.124143" style="fill: #ff0000; stroke: #ff0000"/>
     <use xlink:href="#m13e8feccd1" x="444" y="250.167251" style="fill: #ff0000; stroke: #ff0000"/>
     <use xlink:href="#m13e8feccd1" x="471.054545" y="267.329626" style="fill: #ff0000; stroke: #ff0000"/>
     <use xlink:href="#m13e8feccd1" x="498.109091" y="273.783369" style="fill: #ff0000; stroke: #ff0000"/>
    </g>
   </g>
   <g id="LineCollection_1">
    <path d="M 92.290909 349.988181 
L 92.290909 344.133766 
" clip-path="url(#pdb148fdb7f)" style="fill: none; stroke: #000000; stroke-width: 1.5"/>
    <path d="M 119.345455 347.498407 
L 119.345455 340.536438 
" clip-path="url(#pdb148fdb7f)" style="fill: none; stroke: #000000; stroke-width: 1.5"/>
    <path d="M 146.4 343.441709 
L 146.4 335.004124 
" clip-path="url(#pdb148fdb7f)" style="fill: none; stroke: #000000; stroke-width: 1.5"/>
    <path d="M 173.454545 322.443064 
L 173.454545 312.959685 
" clip-path="url(#pdb148fdb7f)" style="fill: none; stroke: #000000; stroke-width: 1.5"/>
    <path d="M 200.509091 310.044329 
L 200.509091 300.480506 
" clip-path="url(#pdb148fdb7f)" style="fill: none; stroke: #000000; stroke-width: 1.5"/>
    <path d="M 227.563636 281.814065 
L 227.563636 263.747707 
" clip-path="url(#pdb148fdb7f)" style="fill: none; stroke: #000000; stroke-width: 1.5"/>
    <path d="M 254.618182 233.396723 
L 254.618182 209.739478 
" clip-path="url(#pdb148fdb7f)" style="fill: none; stroke: #000000; stroke-width: 1.5"/>
    <path d="M 281.672727 211.374641 
L 281.672727 141.452277 
" clip-path="url(#pdb148fdb7f)" style="fill: none; stroke: #000000; stroke-width: 1.5"/>
    <path d="M 308.727273 119.123745 
L 308.727273 89.984931 
" clip-path="url(#pdb148fdb7f)" style="fill: none; stroke: #000000; stroke-width: 1.5"/>
    <path d="M 335.781818 110.823089 
L 335.781818 66.665455 
" clip-path="url(#pdb148fdb7f)" style="fill: none; stroke: #000000; stroke-width: 1.5"/>
    <path d="M 362.836364 128.640661 
L 362.836364 80.124039 
" clip-path="url(#pdb148fdb7f)" style="fill: none; stroke: #000000; stroke-width: 1.5"/>
    <path d="M 389.890909 161.500871 
L 389.890909 130.261999 
" clip-path="url(#pdb148fdb7f)" style="fill: none; stroke: #000000; stroke-width: 1.5"/>
    <path d="M 416.945455 271.237106 
L 416.945455 251.011179 
" clip-path="url(#pdb148fdb7f)" style="fill: none; stroke: #000000; stroke-width: 1.5"/>
    <path d="M 444 264.255224 
L 444 236.079279 
" clip-path="url(#pdb148fdb7f)" style="fill: none; stroke: #000000; stroke-width: 1.5"/>
    <path d="M 471.054545 280.186242 
L 471.054545 254.473009 
" clip-path="url(#pdb148fdb7f)" style="fill: none; stroke: #000000; stroke-width: 1.5"/>
    <path d="M 498.109091 290.364806 
L 498.109091 257.201932 
" clip-path="url(#pdb148fdb7f)" style="fill: none; stroke: #000000; stroke-width: 1.5"/>
   </g>
   <g id="line2d_16">
    <defs>
     <path id="mb29914c818" d="M 5 0 
L -5 -0 
" style="stroke: #000000"/>
    </defs>
    <g clip-path="url(#pdb148fdb7f)">
     <use xlink:href="#mb29914c818" x="92.290909" y="349.988181" style="stroke: #000000"/>
     <use xlink:href="#mb29914c818" x="119.345455" y="347.498407" style="stroke: #000000"/>
     <use xlink:href="#mb29914c818" x="146.4" y="343.441709" style="stroke: #000000"/>
     <use xlink:href="#mb29914c818" x="173.454545" y="322.443064" style="stroke: #000000"/>
     <use xlink:href="#mb29914c818" x="200.509091" y="310.044329" style="stroke: #000000"/>
     <use xlink:href="#mb29914c818" x="227.563636" y="281.814065" style="stroke: #000000"/>
     <use xlink:href="#mb29914c818" x="254.618182" y="233.396723" style="stroke: #000000"/>
     <use xlink:href="#mb29914c818" x="281.672727" y="211.374641" style="stroke: #000000"/>
     <use xlink:href="#mb29914c818" x="308.727273" y="119.123745" style="stroke: #000000"/>
     <use xlink:href="#mb29914c818" x="335.781818" y="110.823089" style="stroke: #000000"/>
     <use xlink:href="#mb29914c818" x="362.836364" y="128.640661" style="stroke: #000000"/>
     <use xlink:href="#mb29914c818" x="389.890909" y="161.500871" style="stroke: #000000"/>
     <use xlink:href="#mb29914c818" x="416.945455" y="271.237106" style="stroke: #000000"/>
     <use xlink:href="#mb29914c818" x="444" y="264.255224" style="stroke: #000000"/>
     <use xlink:href="#mb29914c818" x="471.054545" y="280.186242" style="stroke: #000000"/>
     <use xlink:href="#mb29914c818" x="498.109091" y="290.364806" style="stroke: #000000"/>
    </g>
   </g>
   <g id="line2d_17">
    <g clip-path="url(#pdb148fdb7f)">
     <use xlink:href="#mb29914c818" x="92.290909" y="344.133766" style="stroke: #000000"/>
     <use xlink:href="#mb29914c818" x="119.345455" y="340.536438" style="stroke: #000000"/>
     <use xlink:href="#mb29914c818" x="146.4" y="335.004124" style="stroke: #000000"/>
     <use xlink:href="#mb29914c818" x="173.454545" y="312.959685" style="stroke: #000000"/>
     <use xlink:href="#mb29914c818" x="200.509091" y="300.480506" style="stroke: #000000"/>
     <use xlink:href="#mb29914c818" x="227.563636" y="263.747707" style="stroke: #000000"/>
     <use xlink:href="#mb29914c818" x="254.618182" y="209.739478" style="stroke: #000000"/>
     <use xlink:href="#mb29914c818" x="281.672727" y="141.452277" style="stroke: #000000"/>
     <use xlink:href="#mb29914c818" x="308.727273" y="89.984931" style="stroke: #000000"/>
     <use xlink:href="#mb29914c818" x="335.781818" y="66.665455" style="stroke: #000000"/>
     <use xlink:href="#mb29914c818" x="362.836364" y="80.124039" style="stroke: #000000"/>
     <use xlink:href="#mb29914c818" x="389.890909" y="130.261999" style="stroke: #000000"/>
     <use xlink:href="#mb29914c818" x="416.945455" y="251.011179" style="stroke: #000000"/>
     <use xlink:href="#mb29914c818" x="444" y="236.079279" style="stroke: #000000"/>
     <use xlink:href="#mb29914c818" x="471.054545" y="254.473009" style="stroke: #000000"/>
     <use xlink:href="#mb29914c818" x="498.109091" y="257.201932" style="stroke: #000000"/>
    </g>
   </g>
   <g id="line2d_18"/>
   <g id="patch_3">
    <path d="M 72 378 
L 72 51.84 
" style="fill: none; stroke: #000000; stroke-width: 0.8; stroke-linejoin: miter; stroke-linecap: square"/>
   </g>
   <g id="patch_4">
    <path d="M 518.4 378 
L 518.4 51.84 
" style="fill: none; stroke: #000000; stroke-width: 0.8; stroke-linejoin: miter; stroke-linecap: square"/>
   </g>
   <g id="patch_5">
    <path d="M 72 378 
L 518.4 378 
" style="fill: none; stroke: #000000; stroke-width: 0.8; stroke-linejoin: miter; stroke-linecap: square"/>
   </g>
   <g id="patch_6">
    <path d="M 72 51.84 
L 518.4 51.84 
" style="fill: none; stroke: #000000; stroke-width: 0.8; stroke-linejoin: miter; stroke-linecap: square"/>
   </g>
   <g id="legend_1">
    <g id="patch_7">
     <path d="M 86 126.5525 
L 265.559375 126.5525 
Q 269.559375 126.5525 269.559375 122.5525 
L 269.559375 65.84 
Q 269.559375 61.84 265.559375 61.84 
L 86 61.84 
Q 82 61.84 82 65.84 
L 82 122.5525 
Q 82 126.5525 86 126.5525 
z
" style="fill: #ffffff; opacity: 0.8; stroke: #cccccc; stroke-linejoin: miter"/>
    </g>
    <g id="line2d_19">
     <path d="M 90 78.036875 
L 110 78.036875 
L 130 78.036875 
" style="fill: none; stroke: #0000ff; stroke-width: 1.5; stroke-linecap: square"/>
    </g>
    <g id="text_16">
     <!-- Theory -->
     <g transform="translate(146 85.036875)scale(0.2 -0.2)">
      <defs>
       <path id="DejaVuSans-54" d="M -19 4666 
L 3928 4666 
L 3928 4134 
L 2272 4134 
L 2272 0 
L 1638 0 
L 1638 4134 
L -19 4134 
L -19 4666 
z
" transform="scale(0.015625)"/>
       <path id="DejaVuSans-68" d="M 3513 2113 
L 3513 0 
L 2938 0 
L 2938 2094 
Q 2938 2591 2744 2837 
Q 2550 3084 2163 3084 
Q 1697 3084 1428 2787 
Q 1159 2491 1159 1978 
L 1159 0 
L 581 0 
L 581 4863 
L 1159 4863 
L 1159 2956 
Q 1366 3272 1645 3428 
Q 1925 3584 2291 3584 
Q 2894 3584 3203 3211 
Q 3513 2838 3513 2113 
z
" transform="scale(0.015625)"/>
       <path id="DejaVuSans-65" d="M 3597 1894 
L 3597 1613 
L 953 1613 
Q 991 1019 1311 708 
Q 1631 397 2203 397 
Q 2534 397 2845 478 
Q 3156 559 3463 722 
L 3463 178 
Q 3153 47 2828 -22 
Q 2503 -91 2169 -91 
Q 1331 -91 842 396 
Q 353 884 353 1716 
Q 353 2575 817 3079 
Q 1281 3584 2069 3584 
Q 2775 3584 3186 3129 
Q 3597 2675 3597 1894 
z
M 3022 2063 
Q 3016 2534 2758 2815 
Q 2500 3097 2075 3097 
Q 1594 3097 1305 2825 
Q 1016 2553 972 2059 
L 3022 2063 
z
" transform="scale(0.015625)"/>
       <path id="DejaVuSans-6f" d="M 1959 3097 
Q 1497 3097 1228 2736 
Q 959 2375 959 1747 
Q 959 1119 1226 758 
Q 1494 397 1959 397 
Q 2419 397 2687 759 
Q 2956 1122 2956 1747 
Q 2956 2369 2687 2733 
Q 2419 3097 1959 3097 
z
M 1959 3584 
Q 2709 3584 3137 3096 
Q 3566 2609 3566 1747 
Q 3566 888 3137 398 
Q 2709 -91 1959 -91 
Q 1206 -91 779 398 
Q 353 888 353 1747 
Q 353 2609 779 3096 
Q 1206 3584 1959 3584 
z
" transform="scale(0.015625)"/>
       <path id="DejaVuSans-72" d="M 2631 2963 
Q 2534 3019 2420 3045 
Q 2306 3072 2169 3072 
Q 1681 3072 1420 2755 
Q 1159 2438 1159 1844 
L 1159 0 
L 581 0 
L 581 3500 
L 1159 3500 
L 1159 2956 
Q 1341 3275 1631 3429 
Q 1922 3584 2338 3584 
Q 2397 3584 2469 3576 
Q 2541 3569 2628 3553 
L 2631 2963 
z
" transform="scale(0.015625)"/>
       <path id="DejaVuSans-79" d="M 2059 -325 
Q 1816 -950 1584 -1140 
Q 1353 -1331 966 -1331 
L 506 -1331 
L 506 -850 
L 844 -850 
Q 1081 -850 1212 -737 
Q 1344 -625 1503 -206 
L 1606 56 
L 191 3500 
L 800 3500 
L 1894 763 
L 2988 3500 
L 3597 3500 
L 2059 -325 
z
" transform="scale(0.015625)"/>
      </defs>
      <use xlink:href="#DejaVuSans-54"/>
      <use xlink:href="#DejaVuSans-68" x="61.083984"/>
      <use xlink:href="#DejaVuSans-65" x="124.462891"/>
      <use xlink:href="#DejaVuSans-6f" x="185.986328"/>
      <use xlink:href="#DejaVuSans-72" x="247.167969"/>
      <use xlink:href="#DejaVuSans-79" x="288.28125"/>
     </g>
    </g>
    <g id="line2d_20">
     <path d="M 90 107.393125 
L 110 107.393125 
L 130 107.393125 
" style="fill: none; stroke: #ff0000; stroke-width: 1.5; stroke-linecap: square"/>
     <g>
      <use xlink:href="#m13e8feccd1" x="110" y="107.393125" style="fill: #ff0000; stroke: #ff0000"/>
     </g>
    </g>
    <g id="text_17">
     <!-- Experiment -->
     <g transform="translate(146 114.393125)scale(0.2 -0.2)">
      <defs>
       <path id="DejaVuSans-45" d="M 628 4666 
L 3578 4666 
L 3578 4134 
L 1259 4134 
L 1259 2753 
L 3481 2753 
L 3481 2222 
L 1259 2222 
L 1259 531 
L 3634 531 
L 3634 0 
L 628 0 
L 628 4666 
z
" transform="scale(0.015625)"/>
       <path id="DejaVuSans-78" d="M 3513 3500 
L 2247 1797 
L 3578 0 
L 2900 0 
L 1881 1375 
L 863 0 
L 184 0 
L 1544 1831 
L 300 3500 
L 978 3500 
L 1906 2253 
L 2834 3500 
L 3513 3500 
z
" transform="scale(0.015625)"/>
       <path id="DejaVuSans-70" d="M 1159 525 
L 1159 -1331 
L 581 -1331 
L 581 3500 
L 1159 3500 
L 1159 2969 
Q 1341 3281 1617 3432 
Q 1894 3584 2278 3584 
Q 2916 3584 3314 3078 
Q 3713 2572 3713 1747 
Q 3713 922 3314 415 
Q 2916 -91 2278 -91 
Q 1894 -91 1617 61 
Q 1341 213 1159 525 
z
M 3116 1747 
Q 3116 2381 2855 2742 
Q 2594 3103 2138 3103 
Q 1681 3103 1420 2742 
Q 1159 2381 1159 1747 
Q 1159 1113 1420 752 
Q 1681 391 2138 391 
Q 2594 391 2855 752 
Q 3116 1113 3116 1747 
z
" transform="scale(0.015625)"/>
       <path id="DejaVuSans-69" d="M 603 3500 
L 1178 3500 
L 1178 0 
L 603 0 
L 603 3500 
z
M 603 4863 
L 1178 4863 
L 1178 4134 
L 603 4134 
L 603 4863 
z
" transform="scale(0.015625)"/>
       <path id="DejaVuSans-6d" d="M 3328 2828 
Q 3544 3216 3844 3400 
Q 4144 3584 4550 3584 
Q 5097 3584 5394 3201 
Q 5691 2819 5691 2113 
L 5691 0 
L 5113 0 
L 5113 2094 
Q 5113 2597 4934 2840 
Q 4756 3084 4391 3084 
Q 3944 3084 3684 2787 
Q 3425 2491 3425 1978 
L 3425 0 
L 2847 0 
L 2847 2094 
Q 2847 2600 2669 2842 
Q 2491 3084 2119 3084 
Q 1678 3084 1418 2786 
Q 1159 2488 1159 1978 
L 1159 0 
L 581 0 
L 581 3500 
L 1159 3500 
L 1159 2956 
Q 1356 3278 1631 3431 
Q 1906 3584 2284 3584 
Q 2666 3584 2933 3390 
Q 3200 3197 3328 2828 
z
" transform="scale(0.015625)"/>
       <path id="DejaVuSans-6e" d="M 3513 2113 
L 3513 0 
L 2938 0 
L 2938 2094 
Q 2938 2591 2744 2837 
Q 2550 3084 2163 3084 
Q 1697 3084 1428 2787 
Q 1159 2491 1159 1978 
L 1159 0 
L 581 0 
L 581 3500 
L 1159 3500 
L 1159 2956 
Q 1366 3272 1645 3428 
Q 1925 3584 2291 3584 
Q 2894 3584 3203 3211 
Q 3513 2838 3513 2113 
z
" transform="scale(0.015625)"/>
       <path id="DejaVuSans-74" d="M 1172 4494 
L 1172 3500 
L 2356 3500 
L 2356 3053 
L 1172 3053 
L 1172 1153 
Q 1172 725 1289 603 
Q 1406 481 1766 481 
L 2356 481 
L 2356 0 
L 1766 0 
Q 1100 0 847 248 
Q 594 497 594 1153 
L 594 3053 
L 172 3053 
L 172 3500 
L 594 3500 
L 594 4494 
L 1172 4494 
z
" transform="scale(0.015625)"/>
      </defs>
      <use xlink:href="#DejaVuSans-45"/>
      <use xlink:href="#DejaVuSans-78" x="63.183594"/>
      <use xlink:href="#DejaVuSans-70" x="122.363281"/>
      <use xlink:href="#DejaVuSans-65" x="185.839844"/>
      <use xlink:href="#DejaVuSans-72" x="247.363281"/>
      <use xlink:href="#DejaVuSans-69" x="288.476562"/>
      <use xlink:href="#DejaVuSans-6d" x="316.259766"/>
      <use xlink:href="#DejaVuSans-65" x="413.671875"/>
      <use xlink:href="#DejaVuSans-6e" x="475.195312"/>
      <use xlink:href="#DejaVuSans-74" x="538.574219"/>
     </g>
    </g>
   </g>
  </g>
 </g>
 <defs>
  <clipPath id="pdb148fdb7f">
   <rect x="72" y="51.84" width="446.4" height="326.16"/>
  </clipPath>
 </defs>
</svg>
