<?xml version="1.0" encoding="utf-8" standalone="no"?>
<!DOCTYPE svg PUBLIC "-//W3C//DTD SVG 1.1//EN"
  "http://www.w3.org/Graphics/SVG/1.1/DTD/svg11.dtd">
<svg xmlns:xlink="http://www.w3.org/1999/xlink" width="432pt" height="288pt" viewBox="0 0 432 288" xmlns="http://www.w3.org/2000/svg" version="1.1">
 <metadata>
  <rdf:RDF xmlns:dc="http://purl.org/dc/elements/1.1/" xmlns:cc="http://creativecommons.org/ns#" xmlns:rdf="http://www.w3.org/1999/02/22-rdf-syntax-ns#">
   <cc:Work>
    <dc:type rdf:resource="http://purl.org/dc/dcmitype/StillImage"/>
    <dc:date>2022-01-18T16:49:18.936711</dc:date>
    <dc:format>image/svg+xml</dc:format>
    <dc:creator>
     <cc:Agent>
      <dc:title>Matplotlib v3.5.0, https://matplotlib.org/</dc:title>
     </cc:Agent>
    </dc:creator>
   </cc:Work>
  </rdf:RDF>
 </metadata>
 <defs>
  <style type="text/css">*{stroke-linejoin: round; stroke-linecap: butt}</style>
 </defs>
 <g id="figure_1">
  <g id="patch_1">
   <path d="M 0 288 
L 432 288 
L 432 0 
L 0 0 
L 0 288 
z
" style="fill: none"/>
  </g>
  <g id="patch_2">
   <path d="M 72 288 
L 360 288 
L 360 0 
L 72 0 
L 72 288 
z
" style="fill: none"/>
  </g>
  <g id="pane3d_1">
   <g id="patch_3">
    <path d="M 93.745986 216.98843 
L 188.852992 137.267852 
L 187.530913 22.296527 
L 87.872547 95.022663 
" style="fill: #f2f2f2; opacity: 0.5; stroke: #f2f2f2; stroke-linejoin: miter"/>
   </g>
  </g>
  <g id="pane3d_2">
   <g id="patch_4">
    <path d="M 188.852992 137.267852 
L 341.465801 181.62637 
L 346.912015 62.69499 
L 187.530913 22.296527 
" style="fill: #e6e6e6; opacity: 0.5; stroke: #e6e6e6; stroke-linejoin: miter"/>
   </g>
  </g>
  <g id="pane3d_3">
   <g id="patch_5">
    <path d="M 93.745986 216.98843 
L 255.523018 269.824808 
L 341.465801 181.62637 
L 188.852992 137.267852 
" style="fill: #ececec; opacity: 0.5; stroke: #ececec; stroke-linejoin: miter"/>
   </g>
  </g>
  <g id="axis3d_1">
   <g id="line2d_1">
    <path d="M 93.745986 216.98843 
L 255.523018 269.824808 
" style="fill: none; stroke: #000000; stroke-width: 0.8; stroke-linecap: square"/>
   </g>
   <g id="text_1">
    <!-- $\theta_0$ -->
    <g transform="translate(139.870859 286.238064)scale(0.3 -0.3)">
     <defs>
      <path id="DejaVuSans-Oblique-3b8" d="M 2913 2219 
L 925 2219 
Q 791 1284 928 888 
Q 1100 400 1566 400 
Q 2034 400 2391 891 
Q 2703 1322 2913 2219 
z
M 3009 2750 
Q 3094 3638 2984 3950 
Q 2813 4444 2353 4444 
Q 1875 4444 1525 3956 
Q 1250 3563 1034 2750 
L 3009 2750 
z
M 2444 4913 
Q 3194 4913 3494 4250 
Q 3794 3591 3566 2422 
Q 3341 1256 2781 594 
Q 2225 -72 1475 -72 
Q 722 -72 425 594 
Q 128 1256 353 2422 
Q 581 3591 1134 4250 
Q 1691 4913 2444 4913 
z
" transform="scale(0.015625)"/>
      <path id="DejaVuSans-30" d="M 2034 4250 
Q 1547 4250 1301 3770 
Q 1056 3291 1056 2328 
Q 1056 1369 1301 889 
Q 1547 409 2034 409 
Q 2525 409 2770 889 
Q 3016 1369 3016 2328 
Q 3016 3291 2770 3770 
Q 2525 4250 2034 4250 
z
M 2034 4750 
Q 2819 4750 3233 4129 
Q 3647 3509 3647 2328 
Q 3647 1150 3233 529 
Q 2819 -91 2034 -91 
Q 1250 -91 836 529 
Q 422 1150 422 2328 
Q 422 3509 836 4129 
Q 1250 4750 2034 4750 
z
" transform="scale(0.015625)"/>
     </defs>
     <use xlink:href="#DejaVuSans-Oblique-3b8" transform="translate(0 0.234375)"/>
     <use xlink:href="#DejaVuSans-30" transform="translate(61.181641 -16.171875)scale(0.7)"/>
    </g>
   </g>
   <g id="Line3DCollection_1">
    <path d="M 103.544052 220.188478 
L 198.134436 139.965601 
L 197.204784 24.748571 
" style="fill: none; stroke: #b0b0b0; stroke-width: 0.8"/>
    <path d="M 137.630913 231.321247 
L 230.38529 149.339651 
L 230.83853 33.273745 
" style="fill: none; stroke: #b0b0b0; stroke-width: 0.8"/>
    <path d="M 172.502036 242.710155 
L 263.316069 158.911328 
L 265.212322 41.9865 
" style="fill: none; stroke: #b0b0b0; stroke-width: 0.8"/>
    <path d="M 208.184801 254.364146 
L 296.948505 168.68695 
L 300.350854 50.893093 
" style="fill: none; stroke: #b0b0b0; stroke-width: 0.8"/>
    <path d="M 244.70788 266.292584 
L 331.305263 178.673103 
L 336.279934 60.000068 
" style="fill: none; stroke: #b0b0b0; stroke-width: 0.8"/>
   </g>
   <g id="xtick_1">
    <g id="line2d_2">
     <path d="M 104.36774 219.489902 
L 101.893142 221.588628 
" style="fill: none; stroke: #000000; stroke-width: 0.8; stroke-linecap: square"/>
    </g>
    <g id="text_2">
     <!-- 0 -->
     <g transform="translate(86.473379 258.690065)scale(0.3 -0.3)">
      <use xlink:href="#DejaVuSans-30"/>
     </g>
    </g>
   </g>
   <g id="xtick_2">
    <g id="line2d_3">
     <path d="M 138.43936 230.606696 
L 136.010513 232.753449 
" style="fill: none; stroke: #000000; stroke-width: 0.8; stroke-linecap: square"/>
    </g>
    <g id="text_3">
     <!-- $\pi$/4 -->
     <g transform="translate(106.436472 270.040746)scale(0.3 -0.3)">
      <defs>
       <path id="DejaVuSans-Oblique-3c0" d="M 584 3500 
L 3938 3500 
L 3825 2925 
L 3384 2925 
L 2966 775 
Q 2922 550 2981 450 
Q 3038 353 3209 353 
Q 3256 353 3325 363 
Q 3397 369 3419 372 
L 3338 -44 
Q 3222 -84 3103 -103 
Q 2981 -122 2866 -122 
Q 2491 -122 2388 81 
Q 2284 288 2391 838 
L 2797 2925 
L 1506 2925 
L 938 0 
L 350 0 
L 919 2925 
L 472 2925 
L 584 3500 
z
" transform="scale(0.015625)"/>
       <path id="DejaVuSans-2f" d="M 1625 4666 
L 2156 4666 
L 531 -594 
L 0 -594 
L 1625 4666 
z
" transform="scale(0.015625)"/>
       <path id="DejaVuSans-34" d="M 2419 4116 
L 825 1625 
L 2419 1625 
L 2419 4116 
z
M 2253 4666 
L 3047 4666 
L 3047 1625 
L 3713 1625 
L 3713 1100 
L 3047 1100 
L 3047 0 
L 2419 0 
L 2419 1100 
L 313 1100 
L 313 1709 
L 2253 4666 
z
" transform="scale(0.015625)"/>
      </defs>
      <use xlink:href="#DejaVuSans-Oblique-3c0" transform="translate(0 0.09375)"/>
      <use xlink:href="#DejaVuSans-2f" transform="translate(60.205078 0.09375)"/>
      <use xlink:href="#DejaVuSans-34" transform="translate(93.896484 0.09375)"/>
     </g>
    </g>
   </g>
   <g id="xtick_3">
    <g id="line2d_4">
     <path d="M 173.294318 241.979076 
L 170.913995 244.175524 
" style="fill: none; stroke: #000000; stroke-width: 0.8; stroke-linecap: square"/>
    </g>
    <g id="text_4">
     <!-- $\pi$/2 -->
     <g transform="translate(141.943581 281.653498)scale(0.3 -0.3)">
      <defs>
       <path id="DejaVuSans-32" d="M 1228 531 
L 3431 531 
L 3431 0 
L 469 0 
L 469 531 
Q 828 903 1448 1529 
Q 2069 2156 2228 2338 
Q 2531 2678 2651 2914 
Q 2772 3150 2772 3378 
Q 2772 3750 2511 3984 
Q 2250 4219 1831 4219 
Q 1534 4219 1204 4116 
Q 875 4013 500 3803 
L 500 4441 
Q 881 4594 1212 4672 
Q 1544 4750 1819 4750 
Q 2544 4750 2975 4387 
Q 3406 4025 3406 3419 
Q 3406 3131 3298 2873 
Q 3191 2616 2906 2266 
Q 2828 2175 2409 1742 
Q 1991 1309 1228 531 
z
" transform="scale(0.015625)"/>
      </defs>
      <use xlink:href="#DejaVuSans-Oblique-3c0" transform="translate(0 0.78125)"/>
      <use xlink:href="#DejaVuSans-2f" transform="translate(60.205078 0.78125)"/>
      <use xlink:href="#DejaVuSans-32" transform="translate(90.271484 0.78125)"/>
     </g>
    </g>
   </g>
   <g id="xtick_4">
    <g id="line2d_5">
     <path d="M 208.959943 253.615958 
L 206.631076 255.863846 
" style="fill: none; stroke: #000000; stroke-width: 0.8; stroke-linecap: square"/>
    </g>
    <g id="text_5">
     <!-- 3$\pi$/4 -->
     <g transform="translate(167.466058 293.537502)scale(0.3 -0.3)">
      <defs>
       <path id="DejaVuSans-33" d="M 2597 2516 
Q 3050 2419 3304 2112 
Q 3559 1806 3559 1356 
Q 3559 666 3084 287 
Q 2609 -91 1734 -91 
Q 1441 -91 1130 -33 
Q 819 25 488 141 
L 488 750 
Q 750 597 1062 519 
Q 1375 441 1716 441 
Q 2309 441 2620 675 
Q 2931 909 2931 1356 
Q 2931 1769 2642 2001 
Q 2353 2234 1838 2234 
L 1294 2234 
L 1294 2753 
L 1863 2753 
Q 2328 2753 2575 2939 
Q 2822 3125 2822 3475 
Q 2822 3834 2567 4026 
Q 2313 4219 1838 4219 
Q 1578 4219 1281 4162 
Q 984 4106 628 3988 
L 628 4550 
Q 988 4650 1302 4700 
Q 1616 4750 1894 4750 
Q 2613 4750 3031 4423 
Q 3450 4097 3450 3541 
Q 3450 3153 3228 2886 
Q 3006 2619 2597 2516 
z
" transform="scale(0.015625)"/>
      </defs>
      <use xlink:href="#DejaVuSans-33" transform="translate(0 0.78125)"/>
      <use xlink:href="#DejaVuSans-Oblique-3c0" transform="translate(63.623047 0.78125)"/>
      <use xlink:href="#DejaVuSans-2f" transform="translate(123.828125 0.78125)"/>
      <use xlink:href="#DejaVuSans-34" transform="translate(157.519531 0.78125)"/>
     </g>
    </g>
   </g>
   <g id="xtick_5">
    <g id="line2d_6">
     <path d="M 245.46485 265.526679 
L 243.190537 267.827835 
" style="fill: none; stroke: #000000; stroke-width: 0.8; stroke-linecap: square"/>
    </g>
    <g id="text_6">
     <!-- $\pi$ -->
     <g transform="translate(228.182808 305.702377)scale(0.3 -0.3)">
      <use xlink:href="#DejaVuSans-Oblique-3c0" transform="translate(0 0.3125)"/>
     </g>
    </g>
   </g>
  </g>
  <g id="axis3d_2">
   <g id="line2d_7">
    <path d="M 341.465801 181.62637 
L 255.523018 269.824808 
" style="fill: none; stroke: #000000; stroke-width: 0.8; stroke-linecap: square"/>
   </g>
   <g id="text_7">
    <!-- $\theta_1$ -->
    <g transform="translate(311.036093 260.037787)scale(0.3 -0.3)">
     <defs>
      <path id="DejaVuSans-31" d="M 794 531 
L 1825 531 
L 1825 4091 
L 703 3866 
L 703 4441 
L 1819 4666 
L 2450 4666 
L 2450 531 
L 3481 531 
L 3481 0 
L 794 0 
L 794 531 
z
" transform="scale(0.015625)"/>
     </defs>
     <use xlink:href="#DejaVuSans-Oblique-3b8" transform="translate(0 0.234375)"/>
     <use xlink:href="#DejaVuSans-31" transform="translate(61.181641 -16.171875)scale(0.7)"/>
    </g>
   </g>
   <g id="Line3DCollection_2">
    <path d="M 94.76417 89.993471 
L 100.299663 211.495008 
L 261.469594 263.722159 
" style="fill: none; stroke: #b0b0b0; stroke-width: 0.8"/>
    <path d="M 117.788361 73.191465 
L 122.219748 193.121158 
L 281.332795 243.337628 
" style="fill: none; stroke: #b0b0b0; stroke-width: 0.8"/>
    <path d="M 139.918592 57.04183 
L 143.324994 175.430322 
L 300.419423 223.750052 
" style="fill: none; stroke: #b0b0b0; stroke-width: 0.8"/>
    <path d="M 161.205937 41.507295 
L 163.660008 158.38511 
L 318.774147 204.91359 
" style="fill: none; stroke: #b0b0b0; stroke-width: 0.8"/>
    <path d="M 181.697651 26.553376 
L 183.266198 141.950813 
L 336.438273 186.785851 
" style="fill: none; stroke: #b0b0b0; stroke-width: 0.8"/>
   </g>
   <g id="xtick_6">
    <g id="line2d_8">
     <path d="M 260.11141 263.282039 
L 264.189474 264.603537 
" style="fill: none; stroke: #000000; stroke-width: 0.8; stroke-linecap: square"/>
    </g>
    <g id="text_8">
     <!-- 0 -->
     <g transform="translate(264.805892 299.940153)scale(0.3 -0.3)">
      <use xlink:href="#DejaVuSans-30"/>
     </g>
    </g>
   </g>
   <g id="xtick_7">
    <g id="line2d_9">
     <path d="M 279.993298 242.91488 
L 284.015182 244.184196 
" style="fill: none; stroke: #000000; stroke-width: 0.8; stroke-linecap: square"/>
    </g>
    <g id="text_9">
     <!-- $\pi$/4 -->
     <g transform="translate(270.266674 279.276806)scale(0.3 -0.3)">
      <use xlink:href="#DejaVuSans-Oblique-3c0" transform="translate(0 0.09375)"/>
      <use xlink:href="#DejaVuSans-2f" transform="translate(60.205078 0.09375)"/>
      <use xlink:href="#DejaVuSans-34" transform="translate(93.896484 0.09375)"/>
     </g>
    </g>
   </g>
   <g id="xtick_8">
    <g id="line2d_10">
     <path d="M 299.098205 223.343667 
L 303.065142 224.563833 
" style="fill: none; stroke: #000000; stroke-width: 0.8; stroke-linecap: square"/>
    </g>
    <g id="text_10">
     <!-- $\pi$/2 -->
     <g transform="translate(289.71635 259.421745)scale(0.3 -0.3)">
      <use xlink:href="#DejaVuSans-Oblique-3c0" transform="translate(0 0.78125)"/>
      <use xlink:href="#DejaVuSans-2f" transform="translate(60.205078 0.78125)"/>
      <use xlink:href="#DejaVuSans-32" transform="translate(90.271484 0.78125)"/>
     </g>
    </g>
   </g>
   <g id="xtick_9">
    <g id="line2d_11">
     <path d="M 317.470804 204.522636 
L 321.38401 205.696452 
" style="fill: none; stroke: #000000; stroke-width: 0.8; stroke-linecap: square"/>
    </g>
    <g id="text_11">
     <!-- 3$\pi$/4 -->
     <g transform="translate(297.642831 240.328451)scale(0.3 -0.3)">
      <use xlink:href="#DejaVuSans-33" transform="translate(0 0.78125)"/>
      <use xlink:href="#DejaVuSans-Oblique-3c0" transform="translate(63.623047 0.78125)"/>
      <use xlink:href="#DejaVuSans-2f" transform="translate(123.828125 0.78125)"/>
      <use xlink:href="#DejaVuSans-34" transform="translate(157.519531 0.78125)"/>
     </g>
    </g>
   </g>
   <g id="xtick_10">
    <g id="line2d_12">
     <path d="M 335.152408 186.409465 
L 339.01308 187.539523 
" style="fill: none; stroke: #000000; stroke-width: 0.8; stroke-linecap: square"/>
    </g>
    <g id="text_12">
     <!-- $\pi$ -->
     <g transform="translate(339.236953 221.953911)scale(0.3 -0.3)">
      <use xlink:href="#DejaVuSans-Oblique-3c0" transform="translate(0 0.3125)"/>
     </g>
    </g>
   </g>
  </g>
  <g id="axis3d_3">
   <g id="line2d_13">
    <path d="M 341.465801 181.62637 
L 346.912015 62.69499 
" style="fill: none; stroke: #000000; stroke-width: 0.8; stroke-linecap: square"/>
   </g>
   <g id="text_13">
    <!-- $\eta$ -->
    <g transform="translate(374.925427 126.268584)scale(0.3 -0.3)">
     <defs>
      <path id="DejaVuSans-Oblique-3b7" d="M 3703 2113 
L 3034 -1331 
L 2459 -1331 
L 3125 2094 
Q 3222 2591 3075 2838 
Q 2931 3084 2544 3084 
Q 2078 3084 1750 2788 
Q 1425 2491 1325 1978 
L 941 0 
L 363 0 
L 1044 3500 
L 1622 3500 
L 1516 2956 
Q 1781 3272 2094 3428 
Q 2403 3584 2769 3584 
Q 3372 3584 3609 3213 
Q 3844 2838 3703 2113 
z
" transform="scale(0.015625)"/>
     </defs>
     <use xlink:href="#DejaVuSans-Oblique-3b7"/>
    </g>
   </g>
   <g id="Line3DCollection_3">
    <path d="M 341.570145 179.347777 
L 188.82761 135.060563 
L 93.633643 214.655562 
" style="fill: none; stroke: #b0b0b0; stroke-width: 0.8"/>
    <path d="M 342.836382 151.696396 
L 188.519755 108.288722 
L 92.269755 186.333542 
" style="fill: none; stroke: #b0b0b0; stroke-width: 0.8"/>
    <path d="M 344.12925 123.463458 
L 188.205737 80.980939 
L 90.876079 157.39295 
" style="fill: none; stroke: #b0b0b0; stroke-width: 0.8"/>
    <path d="M 345.449599 94.630422 
L 187.88537 53.120956 
L 89.451628 127.813297 
" style="fill: none; stroke: #b0b0b0; stroke-width: 0.8"/>
    <path d="M 346.798313 65.17795 
L 187.558458 24.691855 
L 87.995371 97.57318 
" style="fill: none; stroke: #b0b0b0; stroke-width: 0.8"/>
   </g>
   <g id="xtick_11">
    <g id="line2d_14">
     <path d="M 340.288163 178.97607 
L 344.137161 180.092075 
" style="fill: none; stroke: #000000; stroke-width: 0.8; stroke-linecap: square"/>
    </g>
    <g id="text_14">
     <!-- 0.000 -->
     <g transform="translate(316.896089 199.541587)scale(0.3 -0.3)">
      <defs>
       <path id="DejaVuSans-2e" d="M 684 794 
L 1344 794 
L 1344 0 
L 684 0 
L 684 794 
z
" transform="scale(0.015625)"/>
      </defs>
      <use xlink:href="#DejaVuSans-30"/>
      <use xlink:href="#DejaVuSans-2e" x="63.623047"/>
      <use xlink:href="#DejaVuSans-30" x="95.410156"/>
      <use xlink:href="#DejaVuSans-30" x="159.033203"/>
      <use xlink:href="#DejaVuSans-30" x="222.65625"/>
     </g>
    </g>
   </g>
   <g id="xtick_12">
    <g id="line2d_15">
     <path d="M 341.540557 151.331894 
L 345.431148 152.426277 
" style="fill: none; stroke: #000000; stroke-width: 0.8; stroke-linecap: square"/>
    </g>
    <g id="text_15">
     <!-- 0.025 -->
     <g transform="translate(318.348351 171.940693)scale(0.3 -0.3)">
      <defs>
       <path id="DejaVuSans-35" d="M 691 4666 
L 3169 4666 
L 3169 4134 
L 1269 4134 
L 1269 2991 
Q 1406 3038 1543 3061 
Q 1681 3084 1819 3084 
Q 2600 3084 3056 2656 
Q 3513 2228 3513 1497 
Q 3513 744 3044 326 
Q 2575 -91 1722 -91 
Q 1428 -91 1123 -41 
Q 819 9 494 109 
L 494 744 
Q 775 591 1075 516 
Q 1375 441 1709 441 
Q 2250 441 2565 725 
Q 2881 1009 2881 1497 
Q 2881 1984 2565 2268 
Q 2250 2553 1709 2553 
Q 1456 2553 1204 2497 
Q 953 2441 691 2322 
L 691 4666 
z
" transform="scale(0.015625)"/>
      </defs>
      <use xlink:href="#DejaVuSans-30"/>
      <use xlink:href="#DejaVuSans-2e" x="63.623047"/>
      <use xlink:href="#DejaVuSans-30" x="95.410156"/>
      <use xlink:href="#DejaVuSans-32" x="159.033203"/>
      <use xlink:href="#DejaVuSans-35" x="222.65625"/>
     </g>
    </g>
   </g>
   <g id="xtick_13">
    <g id="line2d_16">
     <path d="M 342.819281 123.106547 
L 346.752372 124.178147 
" style="fill: none; stroke: #000000; stroke-width: 0.8; stroke-linecap: square"/>
    </g>
    <g id="text_16">
     <!-- 0.050 -->
     <g transform="translate(319.831071 143.760947)scale(0.3 -0.3)">
      <use xlink:href="#DejaVuSans-30"/>
      <use xlink:href="#DejaVuSans-2e" x="63.623047"/>
      <use xlink:href="#DejaVuSans-30" x="95.410156"/>
      <use xlink:href="#DejaVuSans-35" x="159.033203"/>
      <use xlink:href="#DejaVuSans-30" x="222.65625"/>
     </g>
    </g>
   </g>
   <g id="xtick_14">
    <g id="line2d_17">
     <path d="M 344.125174 94.28151 
L 348.101702 95.329105 
" style="fill: none; stroke: #000000; stroke-width: 0.8; stroke-linecap: square"/>
    </g>
    <g id="text_17">
     <!-- 0.075 -->
     <g transform="translate(321.345215 114.983948)scale(0.3 -0.3)">
      <defs>
       <path id="DejaVuSans-37" d="M 525 4666 
L 3525 4666 
L 3525 4397 
L 1831 0 
L 1172 0 
L 2766 4134 
L 525 4134 
L 525 4666 
z
" transform="scale(0.015625)"/>
      </defs>
      <use xlink:href="#DejaVuSans-30"/>
      <use xlink:href="#DejaVuSans-2e" x="63.623047"/>
      <use xlink:href="#DejaVuSans-30" x="95.410156"/>
      <use xlink:href="#DejaVuSans-37" x="159.033203"/>
      <use xlink:href="#DejaVuSans-35" x="222.65625"/>
     </g>
    </g>
   </g>
   <g id="xtick_15">
    <g id="line2d_18">
     <path d="M 345.45911 64.837463 
L 349.480044 65.859769 
" style="fill: none; stroke: #000000; stroke-width: 0.8; stroke-linecap: square"/>
    </g>
    <g id="text_18">
     <!-- 0.100 -->
     <g transform="translate(322.891795 85.590504)scale(0.3 -0.3)">
      <use xlink:href="#DejaVuSans-30"/>
      <use xlink:href="#DejaVuSans-2e" x="63.623047"/>
      <use xlink:href="#DejaVuSans-31" x="95.410156"/>
      <use xlink:href="#DejaVuSans-30" x="159.033203"/>
      <use xlink:href="#DejaVuSans-30" x="222.65625"/>
     </g>
    </g>
   </g>
  </g>
  <g id="axes_1">
   <g id="Poly3DCollection_1">
    <path d="M 187.330271 139.16974 
L 195.944959 140.778129 
L 201.067082 136.181272 
L 192.477955 134.679804 
z
" clip-path="url(#p2ea4a4b861)" style="fill: #440154"/>
    <path d="M 195.944959 140.778129 
L 204.602864 140.462011 
L 209.704786 136.17082 
L 201.067082 136.181272 
z
" clip-path="url(#p2ea4a4b861)" style="fill: #450559"/>
    <path d="M 182.122186 142.914577 
L 190.770284 145.084322 
L 195.944959 140.778129 
L 187.330271 139.16974 
z
" clip-path="url(#p2ea4a4b861)" style="fill: #440154"/>
    <path d="M 204.602864 140.462011 
L 213.322747 138.000962 
L 218.405524 133.248818 
L 209.704786 136.17082 
z
" clip-path="url(#p2ea4a4b861)" style="fill: #471365"/>
    <path d="M 190.770284 145.084322 
L 199.443714 143.864965 
L 204.602864 140.462011 
L 195.944959 140.778129 
z
" clip-path="url(#p2ea4a4b861)" style="fill: #46075a"/>
    <path d="M 176.872975 147.456447 
L 185.539073 148.997974 
L 190.770284 145.084322 
L 182.122186 142.914577 
z
" clip-path="url(#p2ea4a4b861)" style="fill: #440154"/>
    <path d="M 213.322747 138.000962 
L 222.122601 137.935278 
L 227.176242 135.625119 
L 218.405524 133.248818 
z
" clip-path="url(#p2ea4a4b861)" style="fill: #481c6e"/>
    <path d="M 199.443714 143.864965 
L 208.17788 139.664933 
L 213.322747 138.000962 
L 204.602864 140.462011 
z
" clip-path="url(#p2ea4a4b861)" style="fill: #481668"/>
    <path d="M 185.539073 148.997974 
L 194.227381 147.032747 
L 199.443714 143.864965 
L 190.770284 145.084322 
z
" clip-path="url(#p2ea4a4b861)" style="fill: #46085c"/>
    <path d="M 171.554624 151.031993 
L 180.256186 153.075643 
L 185.539073 148.997974 
L 176.872975 147.456447 
z
" clip-path="url(#p2ea4a4b861)" style="fill: #440256"/>
    <path d="M 222.122601 137.935278 
L 230.995939 136.32737 
L 236.011808 135.607047 
L 227.176242 135.625119 
z
" clip-path="url(#p2ea4a4b861)" style="fill: #482374"/>
    <path d="M 208.17788 139.664933 
L 217.010706 139.783092 
L 222.122601 137.935278 
L 213.322747 138.000962 
z
" clip-path="url(#p2ea4a4b861)" style="fill: #482173"/>
    <path d="M 194.227381 147.032747 
L 202.969467 141.017279 
L 208.17788 139.664933 
L 199.443714 143.864965 
z
" clip-path="url(#p2ea4a4b861)" style="fill: #481b6d"/>
    <path d="M 180.256186 153.075643 
L 188.935724 148.60602 
L 194.227381 147.032747 
L 185.539073 148.997974 
z
" clip-path="url(#p2ea4a4b861)" style="fill: #470d60"/>
    <path d="M 166.173923 154.325116 
L 174.881929 154.957635 
L 180.256186 153.075643 
L 171.554624 151.031993 
z
" clip-path="url(#p2ea4a4b861)" style="fill: #46075a"/>
    <path d="M 230.995939 136.32737 
L 239.992393 128.657762 
L 245.008315 125.439708 
L 236.011808 135.607047 
z
" clip-path="url(#p2ea4a4b861)" style="fill: #453781"/>
    <path d="M 217.010706 139.783092 
L 225.917131 136.775162 
L 230.995939 136.32737 
L 222.122601 137.935278 
z
" clip-path="url(#p2ea4a4b861)" style="fill: #472c7a"/>
    <path d="M 202.969467 141.017279 
L 211.822714 136.473753 
L 217.010706 139.783092 
L 208.17788 139.664933 
z
" clip-path="url(#p2ea4a4b861)" style="fill: #472d7b"/>
    <path d="M 174.881929 154.957635 
L 183.585405 150.609548 
L 188.935724 148.60602 
L 180.256186 153.075643 
z
" clip-path="url(#p2ea4a4b861)" style="fill: #481467"/>
    <path d="M 188.935724 148.60602 
L 197.676402 139.867428 
L 202.969467 141.017279 
L 194.227381 147.032747 
z
" clip-path="url(#p2ea4a4b861)" style="fill: #482475"/>
    <path d="M 160.742626 157.998178 
L 169.490864 159.37676 
L 174.881929 154.957635 
L 166.173923 154.325116 
z
" clip-path="url(#p2ea4a4b861)" style="fill: #460a5d"/>
    <path d="M 239.992393 128.657762 
L 249.084367 123.213129 
L 254.055654 121.967099 
L 245.008315 125.439708 
z
" clip-path="url(#p2ea4a4b861)" style="fill: #3d4e8a"/>
    <path d="M 225.917131 136.775162 
L 234.961525 124.807871 
L 239.992393 128.657762 
L 230.995939 136.32737 
z
" clip-path="url(#p2ea4a4b861)" style="fill: #424186"/>
    <path d="M 211.822714 136.473753 
L 220.7747 130.383111 
L 225.917131 136.775162 
L 217.010706 139.783092 
z
" clip-path="url(#p2ea4a4b861)" style="fill: #443b84"/>
    <path d="M 169.490864 159.37676 
L 178.175408 152.893103 
L 183.585405 150.609548 
L 174.881929 154.957635 
z
" clip-path="url(#p2ea4a4b861)" style="fill: #481a6c"/>
    <path d="M 197.676402 139.867428 
L 206.554083 133.433574 
L 211.822714 136.473753 
L 202.969467 141.017279 
z
" clip-path="url(#p2ea4a4b861)" style="fill: #443b84"/>
    <path d="M 155.261632 162.039301 
L 164.009317 162.115912 
L 169.490864 159.37676 
L 160.742626 157.998178 
z
" clip-path="url(#p2ea4a4b861)" style="fill: #470d60"/>
    <path d="M 183.585405 150.609548 
L 192.30664 138.577455 
L 197.676402 139.867428 
L 188.935724 148.60602 
z
" clip-path="url(#p2ea4a4b861)" style="fill: #472f7d"/>
    <path d="M 234.961525 124.807871 
L 244.097303 119.33544 
L 249.084367 123.213129 
L 239.992393 128.657762 
z
" clip-path="url(#p2ea4a4b861)" style="fill: #375a8c"/>
    <path d="M 249.084367 123.213129 
L 258.456542 105.423002 
L 263.3292 110.059805 
L 254.055654 121.967099 
z
" clip-path="url(#p2ea4a4b861)" style="fill: #30698e"/>
    <path d="M 164.009317 162.115912 
L 172.74859 157.867428 
L 178.175408 152.893103 
L 169.490864 159.37676 
z
" clip-path="url(#p2ea4a4b861)" style="fill: #481c6e"/>
    <path d="M 220.7747 130.383111 
L 229.86489 116.520426 
L 234.961525 124.807871 
L 225.917131 136.775162 
z
" clip-path="url(#p2ea4a4b861)" style="fill: #39568c"/>
    <path d="M 149.649309 163.298199 
L 158.47244 165.212559 
L 164.009317 162.115912 
L 155.261632 162.039301 
z
" clip-path="url(#p2ea4a4b861)" style="fill: #471365"/>
    <path d="M 206.554083 133.433574 
L 215.53914 124.280036 
L 220.7747 130.383111 
L 211.822714 136.473753 
z
" clip-path="url(#p2ea4a4b861)" style="fill: #3b528b"/>
    <path d="M 178.175408 152.893103 
L 186.883103 139.213767 
L 192.30664 138.577455 
L 183.585405 150.609548 
z
" clip-path="url(#p2ea4a4b861)" style="fill: #443983"/>
    <path d="M 192.30664 138.577455 
L 201.214903 132.132374 
L 206.554083 133.433574 
L 197.676402 139.867428 
z
" clip-path="url(#p2ea4a4b861)" style="fill: #3e4a89"/>
    <path d="M 158.47244 165.212559 
L 167.203575 159.594327 
L 172.74859 157.867428 
L 164.009317 162.115912 
z
" clip-path="url(#p2ea4a4b861)" style="fill: #482071"/>
    <path d="M 258.456542 105.423002 
L 267.81981 99.035725 
L 272.574477 107.375022 
L 263.3292 110.059805 
z
" clip-path="url(#p2ea4a4b861)" style="fill: #26818e"/>
    <path d="M 144.035915 167.029033 
L 152.909877 169.807832 
L 158.47244 165.212559 
L 149.649309 163.298199 
z
" clip-path="url(#p2ea4a4b861)" style="fill: #481769"/>
    <path d="M 244.097303 119.33544 
L 253.576791 94.603845 
L 258.456542 105.423002 
L 249.084367 123.213129 
z
" clip-path="url(#p2ea4a4b861)" style="fill: #297a8e"/>
    <path d="M 229.86489 116.520426 
L 239.066104 110.091372 
L 244.097303 119.33544 
L 234.961525 124.807871 
z
" clip-path="url(#p2ea4a4b861)" style="fill: #2d708e"/>
    <path d="M 172.74859 157.867428 
L 181.411111 141.433429 
L 186.883103 139.213767 
L 178.175408 152.893103 
z
" clip-path="url(#p2ea4a4b861)" style="fill: #433e85"/>
    <path d="M 215.53914 124.280036 
L 224.660481 112.274489 
L 229.86489 116.520426 
L 220.7747 130.383111 
z
" clip-path="url(#p2ea4a4b861)" style="fill: #2e6e8e"/>
    <path d="M 201.214903 132.132374 
L 210.223104 122.07396 
L 215.53914 124.280036 
L 206.554083 133.433574 
z
" clip-path="url(#p2ea4a4b861)" style="fill: #33638d"/>
    <path d="M 186.883103 139.213767 
L 195.810841 132.223517 
L 201.214903 132.132374 
L 192.30664 138.577455 
z
" clip-path="url(#p2ea4a4b861)" style="fill: #39568c"/>
    <path d="M 267.81981 99.035725 
L 277.103572 101.949824 
L 281.825658 108.342411 
L 272.574477 107.375022 
z
" clip-path="url(#p2ea4a4b861)" style="fill: #23888e"/>
    <path d="M 152.909877 169.807832 
L 161.727338 167.64794 
L 167.203575 159.594327 
L 158.47244 165.212559 
z
" clip-path="url(#p2ea4a4b861)" style="fill: #482173"/>
    <path d="M 138.43786 173.290361 
L 147.277371 173.971696 
L 152.909877 169.807832 
L 144.035915 167.029033 
z
" clip-path="url(#p2ea4a4b861)" style="fill: #481769"/>
    <path d="M 167.203575 159.594327 
L 175.943597 147.962595 
L 181.411111 141.433429 
L 172.74859 157.867428 
z
" clip-path="url(#p2ea4a4b861)" style="fill: #424086"/>
    <path d="M 277.103572 101.949824 
L 286.390434 106.889218 
L 291.077444 111.768018 
L 281.825658 108.342411 
z
" clip-path="url(#p2ea4a4b861)" style="fill: #24878e"/>
    <path d="M 286.390434 106.889218 
L 295.334842 125.536023 
L 300.260832 119.150034 
L 291.077444 111.768018 
z
" clip-path="url(#p2ea4a4b861)" style="fill: #297b8e"/>
    <path d="M 147.277371 173.971696 
L 156.138154 172.797983 
L 161.727338 167.64794 
L 152.909877 169.807832 
z
" clip-path="url(#p2ea4a4b861)" style="fill: #481f70"/>
    <path d="M 181.411111 141.433429 
L 190.371678 135.801882 
L 195.810841 132.223517 
L 186.883103 139.213767 
z
" clip-path="url(#p2ea4a4b861)" style="fill: #365d8d"/>
    <path d="M 295.334842 125.536023 
L 304.851728 124.108128 
L 309.879389 114.022058 
L 300.260832 119.150034 
z
" clip-path="url(#p2ea4a4b861)" style="fill: #2a778e"/>
    <path d="M 132.762366 178.782088 
L 141.658698 180.685012 
L 147.277371 173.971696 
L 138.43786 173.290361 
z
" clip-path="url(#p2ea4a4b861)" style="fill: #481467"/>
    <path d="M 253.576791 94.603845 
L 263.024693 87.147373 
L 267.81981 99.035725 
L 258.456542 105.423002 
z
" clip-path="url(#p2ea4a4b861)" style="fill: #1f9a8a"/>
    <path d="M 195.810841 132.223517 
L 204.838875 122.144111 
L 210.223104 122.07396 
L 201.214903 132.132374 
z
" clip-path="url(#p2ea4a4b861)" style="fill: #2e6e8e"/>
    <path d="M 224.660481 112.274489 
L 233.922418 102.51364 
L 239.066104 110.091372 
L 229.86489 116.520426 
z
" clip-path="url(#p2ea4a4b861)" style="fill: #24878e"/>
    <path d="M 210.223104 122.07396 
L 219.369099 108.406501 
L 224.660481 112.274489 
L 215.53914 124.280036 
z
" clip-path="url(#p2ea4a4b861)" style="fill: #277e8e"/>
    <path d="M 161.727338 167.64794 
L 170.454197 155.97576 
L 175.943597 147.962595 
L 167.203575 159.594327 
z
" clip-path="url(#p2ea4a4b861)" style="fill: #433d84"/>
    <path d="M 313.945149 137.255421 
L 323.340068 142.079429 
L 328.054604 138.487848 
L 318.680905 134.241235 
z
" clip-path="url(#p2ea4a4b861)" style="fill: #355f8d"/>
    <path d="M 304.851728 124.108128 
L 313.945149 137.255421 
L 318.680905 134.241235 
L 309.879389 114.022058 
z
" clip-path="url(#p2ea4a4b861)" style="fill: #2e6f8e"/>
    <path d="M 239.066104 110.091372 
L 248.648297 78.127447 
L 253.576791 94.603845 
L 244.097303 119.33544 
z
" clip-path="url(#p2ea4a4b861)" style="fill: #1f968b"/>
    <path d="M 290.328367 133.404317 
L 299.897762 130.726204 
L 304.851728 124.108128 
L 295.334842 125.536023 
z
" clip-path="url(#p2ea4a4b861)" style="fill: #2d718e"/>
    <path d="M 141.658698 180.685012 
L 150.530783 179.4333 
L 156.138154 172.797983 
L 147.277371 173.971696 
z
" clip-path="url(#p2ea4a4b861)" style="fill: #481c6e"/>
    <path d="M 281.662381 100.176108 
L 290.328367 133.404317 
L 295.334842 125.536023 
L 286.390434 106.889218 
z
" clip-path="url(#p2ea4a4b861)" style="fill: #26828e"/>
    <path d="M 175.943597 147.962595 
L 184.89249 140.949671 
L 190.371678 135.801882 
L 181.411111 141.433429 
z
" clip-path="url(#p2ea4a4b861)" style="fill: #365d8d"/>
    <path d="M 263.024693 87.147373 
L 272.371058 91.474065 
L 277.103572 101.949824 
L 267.81981 99.035725 
z
" clip-path="url(#p2ea4a4b861)" style="fill: #1fa287"/>
    <path d="M 127.066098 185.3007 
L 135.98696 187.341115 
L 141.658698 180.685012 
L 132.762366 178.782088 
z
" clip-path="url(#p2ea4a4b861)" style="fill: #471063"/>
    <path d="M 156.138154 172.797983 
L 164.921698 164.031215 
L 170.454197 155.97576 
L 161.727338 167.64794 
z
" clip-path="url(#p2ea4a4b861)" style="fill: #453581"/>
    <path d="M 190.371678 135.801882 
L 199.397688 124.379532 
L 204.838875 122.144111 
L 195.810841 132.223517 
z
" clip-path="url(#p2ea4a4b861)" style="fill: #2c738e"/>
    <path d="M 272.371058 91.474065 
L 281.662381 100.176108 
L 286.390434 106.889218 
L 277.103572 101.949824 
z
" clip-path="url(#p2ea4a4b861)" style="fill: #1f9e89"/>
    <path d="M 299.897762 130.726204 
L 309.401768 132.860863 
L 313.945149 137.255421 
L 304.851728 124.108128 
z
" clip-path="url(#p2ea4a4b861)" style="fill: #2d718e"/>
    <path d="M 309.401768 132.860863 
L 318.707644 142.054021 
L 323.340068 142.079429 
L 313.945149 137.255421 
z
" clip-path="url(#p2ea4a4b861)" style="fill: #31678e"/>
    <path d="M 285.362012 138.07769 
L 294.835883 139.724114 
L 299.897762 130.726204 
L 290.328367 133.404317 
z
" clip-path="url(#p2ea4a4b861)" style="fill: #2f6c8e"/>
    <path d="M 135.98696 187.341115 
L 144.900488 187.082322 
L 150.530783 179.4333 
L 141.658698 180.685012 
z
" clip-path="url(#p2ea4a4b861)" style="fill: #481769"/>
    <path d="M 170.454197 155.97576 
L 179.433855 151.120018 
L 184.89249 140.949671 
L 175.943597 147.962595 
z
" clip-path="url(#p2ea4a4b861)" style="fill: #38588c"/>
    <path d="M 204.838875 122.144111 
L 213.992 105.288538 
L 219.369099 108.406501 
L 210.223104 122.07396 
z
" clip-path="url(#p2ea4a4b861)" style="fill: #228b8d"/>
    <path d="M 121.295925 191.265765 
L 130.265223 194.073575 
L 135.98696 187.341115 
L 127.066098 185.3007 
z
" clip-path="url(#p2ea4a4b861)" style="fill: #460b5e"/>
    <path d="M 219.369099 108.406501 
L 228.666391 98.900716 
L 233.922418 102.51364 
L 224.660481 112.274489 
z
" clip-path="url(#p2ea4a4b861)" style="fill: #1f998a"/>
    <path d="M 150.530783 179.4333 
L 159.350878 172.367667 
L 164.921698 164.031215 
L 156.138154 172.797983 
z
" clip-path="url(#p2ea4a4b861)" style="fill: #472f7d"/>
    <path d="M 276.929882 89.304604 
L 285.362012 138.07769 
L 290.328367 133.404317 
L 281.662381 100.176108 
z
" clip-path="url(#p2ea4a4b861)" style="fill: #218e8d"/>
    <path d="M 184.89249 140.949671 
L 193.930583 130.792712 
L 199.397688 124.379532 
L 190.371678 135.801882 
z
" clip-path="url(#p2ea4a4b861)" style="fill: #2b748e"/>
    <path d="M 294.835883 139.724114 
L 304.334129 142.635751 
L 309.401768 132.860863 
L 299.897762 130.726204 
z
" clip-path="url(#p2ea4a4b861)" style="fill: #2e6f8e"/>
    <path d="M 248.648297 78.127447 
L 258.168494 71.641074 
L 263.024693 87.147373 
L 253.576791 94.603845 
z
" clip-path="url(#p2ea4a4b861)" style="fill: #3dbc74"/>
    <path d="M 164.921698 164.031215 
L 173.962222 162.574915 
L 179.433855 151.120018 
L 170.454197 155.97576 
z
" clip-path="url(#p2ea4a4b861)" style="fill: #3d4d8a"/>
    <path d="M 130.265223 194.073575 
L 139.276159 196.504613 
L 144.900488 187.082322 
L 135.98696 187.341115 
z
" clip-path="url(#p2ea4a4b861)" style="fill: #470e61"/>
    <path d="M 233.922418 102.51364 
L 243.571812 63.612224 
L 248.648297 78.127447 
L 239.066104 110.091372 
z
" clip-path="url(#p2ea4a4b861)" style="fill: #31b57b"/>
    <path d="M 280.434953 138.781179 
L 289.903914 142.41227 
L 294.835883 139.724114 
L 285.362012 138.07769 
z
" clip-path="url(#p2ea4a4b861)" style="fill: #2e6d8e"/>
    <path d="M 144.900488 187.082322 
L 153.815885 183.925543 
L 159.350878 172.367667 
L 150.530783 179.4333 
z
" clip-path="url(#p2ea4a4b861)" style="fill: #482677"/>
    <path d="M 115.484897 197.637239 
L 124.494609 200.929724 
L 130.265223 194.073575 
L 121.295925 191.265765 
z
" clip-path="url(#p2ea4a4b861)" style="fill: #450559"/>
    <path d="M 304.334129 142.635751 
L 313.767162 149.009891 
L 318.707644 142.054021 
L 309.401768 132.860863 
z
" clip-path="url(#p2ea4a4b861)" style="fill: #306a8e"/>
    <path d="M 159.350878 172.367667 
L 168.493916 175.770593 
L 173.962222 162.574915 
L 164.921698 164.031215 
z
" clip-path="url(#p2ea4a4b861)" style="fill: #423f85"/>
    <path d="M 199.397688 124.379532 
L 208.566241 111.189626 
L 213.992 105.288538 
L 204.838875 122.144111 
z
" clip-path="url(#p2ea4a4b861)" style="fill: #20928c"/>
    <path d="M 179.433855 151.120018 
L 188.491481 143.903961 
L 193.930583 130.792712 
L 184.89249 140.949671 
z
" clip-path="url(#p2ea4a4b861)" style="fill: #2f6c8e"/>
    <path d="M 258.168494 71.641074 
L 267.598995 77.199791 
L 272.371058 91.474065 
L 263.024693 87.147373 
z
" clip-path="url(#p2ea4a4b861)" style="fill: #4ac16d"/>
    <path d="M 289.903914 142.41227 
L 299.398266 146.898569 
L 304.334129 142.635751 
L 294.835883 139.724114 
z
" clip-path="url(#p2ea4a4b861)" style="fill: #2f6c8e"/>
    <path d="M 124.494609 200.929724 
L 133.524178 203.290565 
L 139.276159 196.504613 
L 130.265223 194.073575 
z
" clip-path="url(#p2ea4a4b861)" style="fill: #46075a"/>
    <path d="M 139.276159 196.504613 
L 148.246891 195.375797 
L 153.815885 183.925543 
L 144.900488 187.082322 
z
" clip-path="url(#p2ea4a4b861)" style="fill: #48186a"/>
    <path d="M 267.598995 77.199791 
L 276.929882 89.304604 
L 281.662381 100.176108 
L 272.371058 91.474065 
z
" clip-path="url(#p2ea4a4b861)" style="fill: #38b977"/>
    <path d="M 213.992 105.288538 
L 223.325971 93.851619 
L 228.666391 98.900716 
L 219.369099 108.406501 
z
" clip-path="url(#p2ea4a4b861)" style="fill: #23a983"/>
    <path d="M 173.962222 162.574915 
L 183.038722 157.700546 
L 188.491481 143.903961 
L 179.433855 151.120018 
z
" clip-path="url(#p2ea4a4b861)" style="fill: #365d8d"/>
    <path d="M 153.815885 183.925543 
L 162.980014 187.932581 
L 168.493916 175.770593 
L 159.350878 172.367667 
z
" clip-path="url(#p2ea4a4b861)" style="fill: #472f7d"/>
    <path d="M 109.63882 204.514953 
L 118.615251 206.362159 
L 124.494609 200.929724 
L 115.484897 197.637239 
z
" clip-path="url(#p2ea4a4b861)" style="fill: #440154"/>
    <path d="M 299.398266 146.898569 
L 308.876169 153.241436 
L 313.767162 149.009891 
L 304.334129 142.635751 
z
" clip-path="url(#p2ea4a4b861)" style="fill: #31678e"/>
    <path d="M 275.397462 141.666858 
L 284.73601 152.472047 
L 289.903914 142.41227 
L 280.434953 138.781179 
z
" clip-path="url(#p2ea4a4b861)" style="fill: #2e6e8e"/>
    <path d="M 168.493916 175.770593 
L 177.61359 174.537256 
L 183.038722 157.700546 
L 173.962222 162.574915 
z
" clip-path="url(#p2ea4a4b861)" style="fill: #3f4889"/>
    <path d="M 272.025065 81.835472 
L 280.434953 138.781179 
L 285.362012 138.07769 
L 276.929882 89.304604 
z
" clip-path="url(#p2ea4a4b861)" style="fill: #1e9c89"/>
    <path d="M 193.930583 130.792712 
L 203.087589 116.854523 
L 208.566241 111.189626 
L 199.397688 124.379532 
z
" clip-path="url(#p2ea4a4b861)" style="fill: #21918c"/>
    <path d="M 133.524178 203.290565 
L 142.546716 203.457383 
L 148.246891 195.375797 
L 139.276159 196.504613 
z
" clip-path="url(#p2ea4a4b861)" style="fill: #470d60"/>
    <path d="M 148.246891 195.375797 
L 157.39114 198.129981 
L 162.980014 187.932581 
L 153.815885 183.925543 
z
" clip-path="url(#p2ea4a4b861)" style="fill: #481d6f"/>
    <path d="M 284.73601 152.472047 
L 294.306392 154.917468 
L 299.398266 146.898569 
L 289.903914 142.41227 
z
" clip-path="url(#p2ea4a4b861)" style="fill: #31688e"/>
    <path d="M 162.980014 187.932581 
L 172.104321 187.15257 
L 177.61359 174.537256 
L 168.493916 175.770593 
z
" clip-path="url(#p2ea4a4b861)" style="fill: #46337f"/>
    <path d="M 118.615251 206.362159 
L 127.686355 209.173962 
L 133.524178 203.290565 
L 124.494609 200.929724 
z
" clip-path="url(#p2ea4a4b861)" style="fill: #440256"/>
    <path d="M 228.666391 98.900716 
L 238.325841 55.591885 
L 243.571812 63.612224 
L 233.922418 102.51364 
z
" clip-path="url(#p2ea4a4b861)" style="fill: #60ca60"/>
    <path d="M 294.306392 154.917468 
L 303.777432 162.45403 
L 308.876169 153.241436 
L 299.398266 146.898569 
z
" clip-path="url(#p2ea4a4b861)" style="fill: #33638d"/>
    <path d="M 270.221697 148.802448 
L 279.574063 160.842294 
L 284.73601 152.472047 
L 275.397462 141.666858 
z
" clip-path="url(#p2ea4a4b861)" style="fill: #30698e"/>
    <path d="M 188.491481 143.903961 
L 197.617526 130.06067 
L 203.087589 116.854523 
L 193.930583 130.792712 
z
" clip-path="url(#p2ea4a4b861)" style="fill: #24878e"/>
    <path d="M 208.566241 111.189626 
L 217.90348 104.722902 
L 223.325971 93.851619 
L 213.992 105.288538 
z
" clip-path="url(#p2ea4a4b861)" style="fill: #26ad81"/>
    <path d="M 243.571812 63.612224 
L 253.124573 61.208634 
L 258.168494 71.641074 
L 248.648297 78.127447 
z
" clip-path="url(#p2ea4a4b861)" style="fill: #8ed645"/>
    <path d="M 157.39114 198.129981 
L 166.558921 199.297483 
L 172.104321 187.15257 
L 162.980014 187.932581 
z
" clip-path="url(#p2ea4a4b861)" style="fill: #482173"/>
    <path d="M 142.546716 203.457383 
L 151.713323 206.355071 
L 157.39114 198.129981 
L 148.246891 195.375797 
z
" clip-path="url(#p2ea4a4b861)" style="fill: #471164"/>
    <path d="M 279.574063 160.842294 
L 289.174664 162.966268 
L 294.306392 154.917468 
L 284.73601 152.472047 
z
" clip-path="url(#p2ea4a4b861)" style="fill: #34608d"/>
    <path d="M 127.686355 209.173962 
L 136.738561 209.653204 
L 142.546716 203.457383 
L 133.524178 203.290565 
z
" clip-path="url(#p2ea4a4b861)" style="fill: #46075a"/>
    <path d="M 183.038722 157.700546 
L 192.146917 145.466636 
L 197.617526 130.06067 
L 188.491481 143.903961 
z
" clip-path="url(#p2ea4a4b861)" style="fill: #2b758e"/>
    <path d="M 177.61359 174.537256 
L 186.726655 166.089105 
L 192.146917 145.466636 
L 183.038722 157.700546 
z
" clip-path="url(#p2ea4a4b861)" style="fill: #355e8d"/>
    <path d="M 264.929686 160.242889 
L 274.345972 170.553483 
L 279.574063 160.842294 
L 270.221697 148.802448 
z
" clip-path="url(#p2ea4a4b861)" style="fill: #34608d"/>
    <path d="M 289.174664 162.966268 
L 298.70285 169.683018 
L 303.777432 162.45403 
L 294.306392 154.917468 
z
" clip-path="url(#p2ea4a4b861)" style="fill: #365c8d"/>
    <path d="M 266.894546 81.880192 
L 275.397462 141.666858 
L 280.434953 138.781179 
L 272.025065 81.835472 
z
" clip-path="url(#p2ea4a4b861)" style="fill: #21a685"/>
    <path d="M 172.104321 187.15257 
L 181.233803 181.205459 
L 186.726655 166.089105 
L 177.61359 174.537256 
z
" clip-path="url(#p2ea4a4b861)" style="fill: #414487"/>
    <path d="M 253.124573 61.208634 
L 262.622812 68.280481 
L 267.598995 77.199791 
L 258.168494 71.641074 
z
" clip-path="url(#p2ea4a4b861)" style="fill: #95d840"/>
    <path d="M 151.713323 206.355071 
L 160.928548 208.960525 
L 166.558921 199.297483 
L 157.39114 198.129981 
z
" clip-path="url(#p2ea4a4b861)" style="fill: #471365"/>
    <path d="M 262.622812 68.280481 
L 272.025065 81.835472 
L 276.929882 89.304604 
L 267.598995 77.199791 
z
" clip-path="url(#p2ea4a4b861)" style="fill: #73d056"/>
    <path d="M 274.345972 170.553483 
L 283.961239 172.756998 
L 289.174664 162.966268 
L 279.574063 160.842294 
z
" clip-path="url(#p2ea4a4b861)" style="fill: #38588c"/>
    <path d="M 203.087589 116.854523 
L 212.420659 105.12363 
L 217.90348 104.722902 
L 208.566241 111.189626 
z
" clip-path="url(#p2ea4a4b861)" style="fill: #25ab82"/>
    <path d="M 136.738561 209.653204 
L 145.917128 212.067968 
L 151.713323 206.355071 
L 142.546716 203.457383 
z
" clip-path="url(#p2ea4a4b861)" style="fill: #460b5e"/>
    <path d="M 166.558921 199.297483 
L 175.746342 197.610057 
L 181.233803 181.205459 
L 172.104321 187.15257 
z
" clip-path="url(#p2ea4a4b861)" style="fill: #472d7b"/>
    <path d="M 259.635659 169.929018 
L 269.113411 178.644974 
L 274.345972 170.553483 
L 264.929686 160.242889 
z
" clip-path="url(#p2ea4a4b861)" style="fill: #39558c"/>
    <path d="M 223.325971 93.851619 
L 232.937984 55.674012 
L 238.325841 55.591885 
L 228.666391 98.900716 
z
" clip-path="url(#p2ea4a4b861)" style="fill: #89d548"/>
    <path d="M 283.961239 172.756998 
L 293.559802 177.848499 
L 298.70285 169.683018 
L 289.174664 162.966268 
z
" clip-path="url(#p2ea4a4b861)" style="fill: #3a548c"/>
    <path d="M 160.928548 208.960525 
L 170.141314 208.376607 
L 175.746342 197.610057 
L 166.558921 199.297483 
z
" clip-path="url(#p2ea4a4b861)" style="fill: #481a6c"/>
    <path d="M 269.113411 178.644974 
L 278.682996 183.934973 
L 283.961239 172.756998 
L 274.345972 170.553483 
z
" clip-path="url(#p2ea4a4b861)" style="fill: #3d4d8a"/>
    <path d="M 197.617526 130.06067 
L 206.940096 121.713636 
L 212.420659 105.12363 
L 203.087589 116.854523 
z
" clip-path="url(#p2ea4a4b861)" style="fill: #1fa287"/>
    <path d="M 145.917128 212.067968 
L 155.095371 212.073271 
L 160.928548 208.960525 
L 151.713323 206.355071 
z
" clip-path="url(#p2ea4a4b861)" style="fill: #470e61"/>
    <path d="M 261.535948 92.266093 
L 270.221697 148.802448 
L 275.397462 141.666858 
L 266.894546 81.880192 
z
" clip-path="url(#p2ea4a4b861)" style="fill: #21a585"/>
    <path d="M 181.233803 181.205459 
L 190.554698 181.933544 
L 196.022451 163.055339 
L 186.726655 166.089105 
z
" clip-path="url(#p2ea4a4b861)" style="fill: #3a548c"/>
    <path d="M 186.726655 166.089105 
L 196.022451 163.055339 
L 201.464239 140.415349 
L 192.146917 145.466636 
z
" clip-path="url(#p2ea4a4b861)" style="fill: #2c718e"/>
    <path d="M 192.146917 145.466636 
L 201.464239 140.415349 
L 206.940096 121.713636 
L 197.617526 130.06067 
z
" clip-path="url(#p2ea4a4b861)" style="fill: #228d8d"/>
    <path d="M 175.746342 197.610057 
L 185.059006 198.715815 
L 190.554698 181.933544 
L 181.233803 181.205459 
z
" clip-path="url(#p2ea4a4b861)" style="fill: #453882"/>
    <path d="M 254.305503 179.654881 
L 263.7919 189.59907 
L 269.113411 178.644974 
L 259.635659 169.929018 
z
" clip-path="url(#p2ea4a4b861)" style="fill: #3e4a89"/>
    <path d="M 278.682996 183.934973 
L 288.295511 189.161033 
L 293.559802 177.848499 
L 283.961239 172.756998 
z
" clip-path="url(#p2ea4a4b861)" style="fill: #3e4989"/>
    <path d="M 238.325841 55.591885 
L 247.938239 53.958021 
L 253.124573 61.208634 
L 243.571812 63.612224 
z
" clip-path="url(#p2ea4a4b861)" style="fill: #dae319"/>
    <path d="M 263.7919 189.59907 
L 273.372239 195.262269 
L 278.682996 183.934973 
L 269.113411 178.644974 
z
" clip-path="url(#p2ea4a4b861)" style="fill: #424086"/>
    <path d="M 170.141314 208.376607 
L 179.473716 210.288729 
L 185.059006 198.715815 
L 175.746342 197.610057 
z
" clip-path="url(#p2ea4a4b861)" style="fill: #482173"/>
    <path d="M 256.163726 101.187318 
L 264.929686 160.242889 
L 270.221697 148.802448 
L 261.535948 92.266093 
z
" clip-path="url(#p2ea4a4b861)" style="fill: #1e9d89"/>
    <path d="M 155.095371 212.073271 
L 164.437147 216.17191 
L 170.141314 208.376607 
L 160.928548 208.960525 
z
" clip-path="url(#p2ea4a4b861)" style="fill: #471365"/>
    <path d="M 217.90348 104.722902 
L 227.448299 65.88614 
L 232.937984 55.674012 
L 223.325971 93.851619 
z
" clip-path="url(#p2ea4a4b861)" style="fill: #89d548"/>
    <path d="M 257.50569 62.097486 
L 266.894546 81.880192 
L 272.025065 81.835472 
L 262.622812 68.280481 
z
" clip-path="url(#p2ea4a4b861)" style="fill: #a5db36"/>
    <path d="M 248.907268 192.283833 
L 258.469813 198.463456 
L 263.7919 189.59907 
L 254.305503 179.654881 
z
" clip-path="url(#p2ea4a4b861)" style="fill: #433e85"/>
    <path d="M 273.372239 195.262269 
L 283.012915 200.032974 
L 288.295511 189.161033 
L 278.682996 183.934973 
z
" clip-path="url(#p2ea4a4b861)" style="fill: #443a83"/>
    <path d="M 247.938239 53.958021 
L 257.50569 62.097486 
L 262.622812 68.280481 
L 253.124573 61.208634 
z
" clip-path="url(#p2ea4a4b861)" style="fill: #d8e219"/>
    <path d="M 185.059006 198.715815 
L 194.454227 201.162363 
L 199.951007 183.130741 
L 190.554698 181.933544 
z
" clip-path="url(#p2ea4a4b861)" style="fill: #443b84"/>
    <path d="M 190.554698 181.933544 
L 199.951007 183.130741 
L 205.410629 158.995537 
L 196.022451 163.055339 
z
" clip-path="url(#p2ea4a4b861)" style="fill: #365d8d"/>
    <path d="M 250.600228 123.523227 
L 259.635659 169.929018 
L 264.929686 160.242889 
L 256.163726 101.187318 
z
" clip-path="url(#p2ea4a4b861)" style="fill: #228d8d"/>
    <path d="M 258.469813 198.463456 
L 268.043346 205.965904 
L 273.372239 195.262269 
L 263.7919 189.59907 
z
" clip-path="url(#p2ea4a4b861)" style="fill: #46337f"/>
    <path d="M 196.022451 163.055339 
L 205.410629 158.995537 
L 210.888564 133.965111 
L 201.464239 140.415349 
z
" clip-path="url(#p2ea4a4b861)" style="fill: #27808e"/>
    <path d="M 179.473716 210.288729 
L 188.884801 213.406943 
L 194.454227 201.162363 
L 185.059006 198.715815 
z
" clip-path="url(#p2ea4a4b861)" style="fill: #482475"/>
    <path d="M 245.066729 143.993636 
L 254.305503 179.654881 
L 259.635659 169.929018 
L 250.600228 123.523227 
z
" clip-path="url(#p2ea4a4b861)" style="fill: #2a788e"/>
    <path d="M 164.437147 216.17191 
L 173.74951 215.830623 
L 179.473716 210.288729 
L 170.141314 208.376607 
z
" clip-path="url(#p2ea4a4b861)" style="fill: #481769"/>
    <path d="M 212.420659 105.12363 
L 221.918416 82.614899 
L 227.448299 65.88614 
L 217.90348 104.722902 
z
" clip-path="url(#p2ea4a4b861)" style="fill: #70cf57"/>
    <path d="M 239.516441 167.478334 
L 248.907268 192.283833 
L 254.305503 179.654881 
L 245.066729 143.993636 
z
" clip-path="url(#p2ea4a4b861)" style="fill: #33628d"/>
    <path d="M 194.454227 201.162363 
L 203.925835 206.163646 
L 209.436067 189.217442 
L 199.951007 183.130741 
z
" clip-path="url(#p2ea4a4b861)" style="fill: #443a83"/>
    <path d="M 201.464239 140.415349 
L 210.888564 133.965111 
L 216.389668 107.885906 
L 206.940096 121.713636 
z
" clip-path="url(#p2ea4a4b861)" style="fill: #1fa287"/>
    <path d="M 243.509571 202.025172 
L 253.113099 206.891923 
L 258.469813 198.463456 
L 248.907268 192.283833 
z
" clip-path="url(#p2ea4a4b861)" style="fill: #46327e"/>
    <path d="M 268.043346 205.965904 
L 277.75609 208.318413 
L 283.012915 200.032974 
L 273.372239 195.262269 
z
" clip-path="url(#p2ea4a4b861)" style="fill: #472d7b"/>
    <path d="M 199.951007 183.130741 
L 209.436067 189.217442 
L 214.923459 164.738203 
L 205.410629 158.995537 
z
" clip-path="url(#p2ea4a4b861)" style="fill: #355e8d"/>
    <path d="M 234.007584 186.508739 
L 243.509571 202.025172 
L 248.907268 192.283833 
L 239.516441 167.478334 
z
" clip-path="url(#p2ea4a4b861)" style="fill: #3e4989"/>
    <path d="M 206.940096 121.713636 
L 216.389668 107.885906 
L 221.918416 82.614899 
L 212.420659 105.12363 
z
" clip-path="url(#p2ea4a4b861)" style="fill: #46c06f"/>
    <path d="M 188.884801 213.406943 
L 198.348333 216.025261 
L 203.925835 206.163646 
L 194.454227 201.162363 
z
" clip-path="url(#p2ea4a4b861)" style="fill: #482374"/>
    <path d="M 253.113099 206.891923 
L 262.723983 214.086613 
L 268.043346 205.965904 
L 258.469813 198.463456 
z
" clip-path="url(#p2ea4a4b861)" style="fill: #482979"/>
    <path d="M 203.925835 206.163646 
L 213.439849 210.846132 
L 218.956148 194.941606 
L 209.436067 189.217442 
z
" clip-path="url(#p2ea4a4b861)" style="fill: #463480"/>
    <path d="M 232.937984 55.674012 
L 242.578155 55.698396 
L 247.938239 53.958021 
L 238.325841 55.591885 
z
" clip-path="url(#p2ea4a4b861)" style="fill: #fde725"/>
    <path d="M 209.436067 189.217442 
L 218.956148 194.941606 
L 224.46911 173.258358 
L 214.923459 164.738203 
z
" clip-path="url(#p2ea4a4b861)" style="fill: #39568c"/>
    <path d="M 252.136703 69.326902 
L 261.535948 92.266093 
L 266.894546 81.880192 
L 257.50569 62.097486 
z
" clip-path="url(#p2ea4a4b861)" style="fill: #addc30"/>
    <path d="M 228.502943 204.182785 
L 238.06613 212.932174 
L 243.509571 202.025172 
L 234.007584 186.508739 
z
" clip-path="url(#p2ea4a4b861)" style="fill: #46337f"/>
    <path d="M 205.410629 158.995537 
L 214.923459 164.738203 
L 220.433672 138.149368 
L 210.888564 133.965111 
z
" clip-path="url(#p2ea4a4b861)" style="fill: #25858e"/>
    <path d="M 173.74951 215.830623 
L 183.174056 217.697231 
L 188.884801 213.406943 
L 179.473716 210.288729 
z
" clip-path="url(#p2ea4a4b861)" style="fill: #481b6d"/>
    <path d="M 218.956148 194.941606 
L 228.502943 204.182785 
L 234.007584 186.508739 
L 224.46911 173.258358 
z
" clip-path="url(#p2ea4a4b861)" style="fill: #3f4889"/>
    <path d="M 224.46911 173.258358 
L 234.007584 186.508739 
L 239.516441 167.478334 
L 229.996083 150.676294 
z
" clip-path="url(#p2ea4a4b861)" style="fill: #30698e"/>
    <path d="M 213.439849 210.846132 
L 222.999065 216.25189 
L 228.502943 204.182785 
L 218.956148 194.941606 
z
" clip-path="url(#p2ea4a4b861)" style="fill: #472c7a"/>
    <path d="M 238.06613 212.932174 
L 247.706316 216.007631 
L 253.113099 206.891923 
L 243.509571 202.025172 
z
" clip-path="url(#p2ea4a4b861)" style="fill: #482677"/>
    <path d="M 214.923459 164.738203 
L 224.46911 173.258358 
L 229.996083 150.676294 
L 220.433672 138.149368 
z
" clip-path="url(#p2ea4a4b861)" style="fill: #287c8e"/>
    <path d="M 262.723983 214.086613 
L 272.42144 218.391071 
L 277.75609 208.318413 
L 268.043346 205.965904 
z
" clip-path="url(#p2ea4a4b861)" style="fill: #482374"/>
    <path d="M 198.348333 216.025261 
L 207.883362 220.950836 
L 213.439849 210.846132 
L 203.925835 206.163646 
z
" clip-path="url(#p2ea4a4b861)" style="fill: #481f70"/>
    <path d="M 242.578155 55.698396 
L 252.136703 69.326902 
L 257.50569 62.097486 
L 247.938239 53.958021 
z
" clip-path="url(#p2ea4a4b861)" style="fill: #f4e61e"/>
    <path d="M 229.996083 150.676294 
L 239.516441 167.478334 
L 245.066729 143.993636 
L 235.569323 122.513124 
z
" clip-path="url(#p2ea4a4b861)" style="fill: #228c8d"/>
    <path d="M 210.888564 133.965111 
L 220.433672 138.149368 
L 225.976974 110.398721 
L 216.389668 107.885906 
z
" clip-path="url(#p2ea4a4b861)" style="fill: #27ad81"/>
    <path d="M 222.999065 216.25189 
L 232.612166 219.074193 
L 238.06613 212.932174 
L 228.502943 204.182785 
z
" clip-path="url(#p2ea4a4b861)" style="fill: #482374"/>
    <path d="M 247.706316 216.007631 
L 257.33211 224.216606 
L 262.723983 214.086613 
L 253.113099 206.891923 
z
" clip-path="url(#p2ea4a4b861)" style="fill: #481f70"/>
    <path d="M 183.174056 217.697231 
L 192.687174 221.70565 
L 198.348333 216.025261 
L 188.884801 213.406943 
z
" clip-path="url(#p2ea4a4b861)" style="fill: #481b6d"/>
    <path d="M 246.707029 78.091397 
L 256.163726 101.187318 
L 261.535948 92.266093 
L 252.136703 69.326902 
z
" clip-path="url(#p2ea4a4b861)" style="fill: #98d83e"/>
    <path d="M 207.883362 220.950836 
L 217.462393 225.032512 
L 222.999065 216.25189 
L 213.439849 210.846132 
z
" clip-path="url(#p2ea4a4b861)" style="fill: #481b6d"/>
    <path d="M 235.569323 122.513124 
L 245.066729 143.993636 
L 250.600228 123.523227 
L 241.139813 99.329052 
z
" clip-path="url(#p2ea4a4b861)" style="fill: #29af7f"/>
    <path d="M 220.433672 138.149368 
L 229.996083 150.676294 
L 235.569323 122.513124 
L 225.976974 110.398721 
z
" clip-path="url(#p2ea4a4b861)" style="fill: #20a486"/>
    <path d="M 227.448299 65.88614 
L 237.121584 62.112052 
L 242.578155 55.698396 
L 232.937984 55.674012 
z
" clip-path="url(#p2ea4a4b861)" style="fill: #fde725"/>
    <path d="M 241.139813 99.329052 
L 250.600228 123.523227 
L 256.163726 101.187318 
L 246.707029 78.091397 
z
" clip-path="url(#p2ea4a4b861)" style="fill: #65cb5e"/>
    <path d="M 257.33211 224.216606 
L 267.068498 227.49501 
L 272.42144 218.391071 
L 262.723983 214.086613 
z
" clip-path="url(#p2ea4a4b861)" style="fill: #481769"/>
    <path d="M 232.612166 219.074193 
L 242.279959 222.633097 
L 247.706316 216.007631 
L 238.06613 212.932174 
z
" clip-path="url(#p2ea4a4b861)" style="fill: #481f70"/>
    <path d="M 216.389668 107.885906 
L 225.976974 110.398721 
L 231.544113 85.168171 
L 221.918416 82.614899 
z
" clip-path="url(#p2ea4a4b861)" style="fill: #73d056"/>
    <path d="M 192.687174 221.70565 
L 202.243351 224.462941 
L 207.883362 220.950836 
L 198.348333 216.025261 
z
" clip-path="url(#p2ea4a4b861)" style="fill: #481a6c"/>
    <path d="M 237.121584 62.112052 
L 246.707029 78.091397 
L 252.136703 69.326902 
L 242.578155 55.698396 
z
" clip-path="url(#p2ea4a4b861)" style="fill: #eae51a"/>
    <path d="M 225.976974 110.398721 
L 235.569323 122.513124 
L 241.139813 99.329052 
L 231.544113 85.168171 
z
" clip-path="url(#p2ea4a4b861)" style="fill: #5cc863"/>
    <path d="M 221.918416 82.614899 
L 231.544113 85.168171 
L 237.121584 62.112052 
L 227.448299 65.88614 
z
" clip-path="url(#p2ea4a4b861)" style="fill: #cde11d"/>
    <path d="M 217.462393 225.032512 
L 227.100395 226.442372 
L 232.612166 219.074193 
L 222.999065 216.25189 
z
" clip-path="url(#p2ea4a4b861)" style="fill: #481a6c"/>
    <path d="M 242.279959 222.633097 
L 251.935112 231.794224 
L 257.33211 224.216606 
L 247.706316 216.007631 
z
" clip-path="url(#p2ea4a4b861)" style="fill: #481668"/>
    <path d="M 231.544113 85.168171 
L 241.139813 99.329052 
L 246.707029 78.091397 
L 237.121584 62.112052 
z
" clip-path="url(#p2ea4a4b861)" style="fill: #b5de2b"/>
    <path d="M 202.243351 224.462941 
L 211.863225 227.973328 
L 217.462393 225.032512 
L 207.883362 220.950836 
z
" clip-path="url(#p2ea4a4b861)" style="fill: #481769"/>
    <path d="M 251.935112 231.794224 
L 261.672761 236.741417 
L 267.068498 227.49501 
L 257.33211 224.216606 
z
" clip-path="url(#p2ea4a4b861)" style="fill: #470d60"/>
    <path d="M 227.100395 226.442372 
L 236.794746 230.289201 
L 242.279959 222.633097 
L 232.612166 219.074193 
z
" clip-path="url(#p2ea4a4b861)" style="fill: #481a6c"/>
    <path d="M 236.794746 230.289201 
L 246.491063 239.292969 
L 251.935112 231.794224 
L 242.279959 222.633097 
z
" clip-path="url(#p2ea4a4b861)" style="fill: #471063"/>
    <path d="M 211.863225 227.973328 
L 221.540372 230.391423 
L 227.100395 226.442372 
L 217.462393 225.032512 
z
" clip-path="url(#p2ea4a4b861)" style="fill: #48186a"/>
    <path d="M 246.491063 239.292969 
L 256.27505 243.218079 
L 261.672761 236.741417 
L 251.935112 231.794224 
z
" clip-path="url(#p2ea4a4b861)" style="fill: #450559"/>
    <path d="M 221.540372 230.391423 
L 231.277265 234.122695 
L 236.794746 230.289201 
L 227.100395 226.442372 
z
" clip-path="url(#p2ea4a4b861)" style="fill: #48186a"/>
    <path d="M 231.277265 234.122695 
L 241.00299 246.148198 
L 246.491063 239.292969 
L 236.794746 230.289201 
z
" clip-path="url(#p2ea4a4b861)" style="fill: #470d60"/>
    <path d="M 241.00299 246.148198 
L 250.829778 249.220197 
L 256.27505 243.218079 
L 246.491063 239.292969 
z
" clip-path="url(#p2ea4a4b861)" style="fill: #440154"/>
   </g>
  </g>
 </g>
 <defs>
  <clipPath id="p2ea4a4b861">
   <rect x="72" y="0" width="288" height="288"/>
  </clipPath>
 </defs>
</svg>
